<svg width="114" height="25" viewBox="0 0 114 25" fill="none" xmlns="http://www.w3.org/2000/svg">
<path d="M37.0112 16.0961C37.0112 14.9867 37.2629 13.9915 37.7662 13.1105C38.2695 12.2187 38.9534 11.5226 39.8178 11.0223C40.6932 10.522 41.6615 10.2718 42.7229 10.2718C43.9703 10.2718 45.059 10.5709 45.989 11.1691C46.9191 11.7673 47.5975 12.6157 48.0242 13.7142H46.2352C45.9179 13.029 45.4583 12.5015 44.8565 12.1317C44.2657 11.7619 43.5545 11.577 42.7229 11.577C41.9241 11.577 41.2074 11.7619 40.5728 12.1317C39.9382 12.5015 39.4403 13.029 39.0792 13.7142C38.7182 14.3885 38.5376 15.1825 38.5376 16.0961C38.5376 16.9989 38.7182 17.7928 39.0792 18.478C39.4403 19.1524 39.9382 19.6744 40.5728 20.0442C41.2074 20.414 41.9241 20.5989 42.7229 20.5989C43.5545 20.5989 44.2657 20.4195 44.8565 20.0606C45.4583 19.6908 45.9179 19.1633 46.2352 18.478H48.0242C47.5975 19.5657 46.9191 20.4086 45.989 21.0068C45.059 21.5941 43.9703 21.8878 42.7229 21.8878C41.6615 21.8878 40.6932 21.6431 39.8178 21.1536C38.9534 20.6533 38.2695 19.9627 37.7662 19.0817C37.2629 18.2007 37.0112 17.2055 37.0112 16.0961Z" fill="white"/>
<path d="M54.1702 21.9367C53.3276 21.9367 52.5617 21.7464 51.8724 21.3657C51.194 20.985 50.6578 20.4467 50.2639 19.7506C49.881 19.0436 49.6895 18.2279 49.6895 17.3034C49.6895 16.3898 49.8864 15.5849 50.2803 14.8888C50.6852 14.1819 51.2323 13.6435 51.9216 13.2737C52.611 12.893 53.3824 12.7027 54.2358 12.7027C55.0893 12.7027 55.8607 12.893 56.55 13.2737C57.2394 13.6435 57.781 14.1764 58.1749 14.8725C58.5797 15.5686 58.7822 16.3789 58.7822 17.3034C58.7822 18.2279 58.5743 19.0436 58.1585 19.7506C57.7536 20.4467 57.2011 20.985 56.5008 21.3657C55.8005 21.7464 55.0236 21.9367 54.1702 21.9367ZM54.1702 20.6316C54.7063 20.6316 55.2096 20.5065 55.6801 20.2563C56.1506 20.0062 56.5281 19.6309 56.8126 19.1306C57.1081 18.6303 57.2558 18.0212 57.2558 17.3034C57.2558 16.5855 57.1135 15.9765 56.829 15.4762C56.5446 14.9758 56.1725 14.606 55.713 14.3668C55.2534 14.1166 54.7556 13.9915 54.2194 13.9915C53.6723 13.9915 53.169 14.1166 52.7094 14.3668C52.2608 14.606 51.8997 14.9758 51.6262 15.4762C51.3526 15.9765 51.2159 16.5855 51.2159 17.3034C51.2159 18.0321 51.3472 18.6466 51.6098 19.1469C51.8833 19.6472 52.2444 20.0225 52.693 20.2726C53.1416 20.5119 53.634 20.6316 54.1702 20.6316Z" fill="white"/>
<path d="M61.5173 11.3975C61.2328 11.3975 60.9921 11.2996 60.7952 11.1039C60.5982 10.9081 60.4997 10.6688 60.4997 10.386C60.4997 10.1032 60.5982 9.86395 60.7952 9.66817C60.9921 9.4724 61.2328 9.37451 61.5173 9.37451C61.7909 9.37451 62.0207 9.4724 62.2067 9.66817C62.4036 9.86395 62.5021 10.1032 62.5021 10.386C62.5021 10.6688 62.4036 10.9081 62.2067 11.1039C62.0207 11.2996 61.7909 11.3975 61.5173 11.3975ZM62.2395 12.8495V21.7899H60.7459V12.8495H62.2395Z" fill="white"/>
<path d="M69.1672 12.6864C70.2614 12.6864 71.1477 13.0181 71.8261 13.6816C72.5045 14.3341 72.8437 15.2804 72.8437 16.5203V21.7899H71.3665V16.7324C71.3665 15.8405 71.1422 15.1607 70.6936 14.6931C70.245 14.2145 69.6323 13.9752 68.8554 13.9752C68.0676 13.9752 67.4384 14.2199 66.9679 14.7094C66.5084 15.1988 66.2786 15.9112 66.2786 16.8466V21.7899H64.785V12.8495H66.2786V14.122C66.574 13.6652 66.9734 13.3118 67.4767 13.0616C67.991 12.8114 68.5545 12.6864 69.1672 12.6864Z" fill="white"/>
<path d="M81.0115 15.933C81.4273 15.9982 81.8048 16.1668 82.144 16.4387C82.4941 16.7106 82.7677 17.0478 82.9646 17.4502C83.1725 17.8526 83.2765 18.2823 83.2765 18.7391C83.2765 19.3155 83.1288 19.8376 82.8333 20.3053C82.5379 20.7621 82.1057 21.1264 81.5367 21.3983C80.9787 21.6594 80.3167 21.7899 79.5508 21.7899H75.2834V10.4186H79.3866C80.1635 10.4186 80.8255 10.5492 81.3726 10.8102C81.9197 11.0603 82.33 11.403 82.6035 11.838C82.8771 12.2731 83.0139 12.7625 83.0139 13.3063C83.0139 13.9807 82.8278 14.5408 82.4558 14.9867C82.0947 15.4218 81.6133 15.7372 81.0115 15.933ZM76.777 15.3293H79.2882C79.9884 15.3293 80.5301 15.1662 80.913 14.8399C81.296 14.5136 81.4875 14.0622 81.4875 13.4858C81.4875 12.9093 81.296 12.458 80.913 12.1317C80.5301 11.8054 79.9775 11.6422 79.2553 11.6422H76.777V15.3293ZM79.4195 20.5663C80.1635 20.5663 80.7434 20.3923 81.1592 20.0442C81.575 19.6962 81.7829 19.2122 81.7829 18.5922C81.7829 17.9614 81.5641 17.4665 81.1264 17.1076C80.6887 16.7378 80.1033 16.5529 79.3702 16.5529H76.777V20.5663H79.4195Z" fill="white"/>
<path d="M84.7911 17.2871C84.7911 16.3735 84.9771 15.574 85.3491 14.8888C85.7211 14.1927 86.2299 13.6544 86.8755 13.2737C87.532 12.893 88.2596 12.7027 89.0584 12.7027C89.8462 12.7027 90.5301 12.8713 91.11 13.2084C91.6899 13.5456 92.1221 13.9698 92.4066 14.481V12.8495H93.9166V21.7899H92.4066V20.1258C92.1112 20.6479 91.668 21.0829 91.0772 21.431C90.4972 21.7681 89.8188 21.9367 89.042 21.9367C88.2432 21.9367 87.5211 21.741 86.8755 21.3494C86.2299 20.9579 85.7211 20.4086 85.3491 19.7016C84.9771 18.9947 84.7911 18.1898 84.7911 17.2871ZM92.4066 17.3034C92.4066 16.6291 92.2698 16.0417 91.9963 15.5414C91.7227 15.0411 91.3507 14.6604 90.8802 14.3994C90.4206 14.1275 89.9119 13.9915 89.3538 13.9915C88.7958 13.9915 88.287 14.122 87.8274 14.3831C87.3679 14.6441 87.0013 15.0248 86.7278 15.5251C86.4542 16.0254 86.3174 16.6127 86.3174 17.2871C86.3174 17.9723 86.4542 18.5705 86.7278 19.0817C87.0013 19.582 87.3679 19.9681 87.8274 20.24C88.287 20.501 88.7958 20.6316 89.3538 20.6316C89.9119 20.6316 90.4206 20.501 90.8802 20.24C91.3507 19.9681 91.7227 19.582 91.9963 19.0817C92.2698 18.5705 92.4066 17.9777 92.4066 17.3034Z" fill="white"/>
<path d="M99.6246 21.9367C98.9353 21.9367 98.3171 21.8225 97.77 21.5941C97.2229 21.3548 96.7907 21.0285 96.4734 20.6152C96.1561 20.1911 95.981 19.7071 95.9482 19.1633H97.491C97.5347 19.6092 97.7426 19.9735 98.1147 20.2563C98.4976 20.5391 98.9955 20.6805 99.6082 20.6805C100.177 20.6805 100.626 20.5554 100.954 20.3053C101.282 20.0551 101.446 19.7397 101.446 19.359C101.446 18.9675 101.271 18.6793 100.921 18.4944C100.571 18.2986 100.029 18.1082 99.2964 17.9233C98.6289 17.7493 98.0818 17.5753 97.6551 17.4013C97.2393 17.2164 96.8782 16.9499 96.5719 16.6019C96.2764 16.2429 96.1287 15.7753 96.1287 15.1988C96.1287 14.742 96.2655 14.3233 96.539 13.9426C96.8126 13.5619 97.201 13.2628 97.7043 13.0453C98.2077 12.8169 98.7821 12.7027 99.4277 12.7027C100.423 12.7027 101.228 12.9528 101.84 13.4532C102.453 13.9535 102.781 14.6387 102.825 15.5088H101.332C101.299 15.0411 101.107 14.6659 100.757 14.3831C100.418 14.1003 99.9584 13.9589 99.3784 13.9589C98.8423 13.9589 98.4156 14.0731 98.0982 14.3015C97.7809 14.5299 97.6223 14.829 97.6223 15.1988C97.6223 15.4925 97.7153 15.7372 97.9013 15.933C98.0982 16.1179 98.339 16.2701 98.6235 16.3898C98.9189 16.4985 99.3237 16.6236 99.838 16.765C100.484 16.939 101.009 17.1131 101.414 17.2871C101.818 17.4502 102.163 17.7004 102.448 18.0375C102.743 18.3747 102.896 18.8152 102.907 19.359C102.907 19.8485 102.77 20.289 102.497 20.6805C102.223 21.0721 101.835 21.382 101.332 21.6104C100.839 21.828 100.27 21.9367 99.6246 21.9367Z" fill="white"/>
<path d="M113.222 16.9771C113.222 17.2599 113.206 17.559 113.173 17.8744H105.984C106.039 18.7554 106.34 19.446 106.887 19.9463C107.445 20.4358 108.118 20.6805 108.905 20.6805C109.551 20.6805 110.087 20.5337 110.514 20.24C110.952 19.9355 111.258 19.533 111.433 19.0327H113.041C112.801 19.892 112.319 20.5935 111.597 21.1373C110.875 21.6703 109.978 21.9367 108.905 21.9367C108.052 21.9367 107.286 21.7464 106.608 21.3657C105.94 20.985 105.415 20.4467 105.032 19.7506C104.649 19.0436 104.458 18.2279 104.458 17.3034C104.458 16.3789 104.644 15.5686 105.016 14.8725C105.388 14.1764 105.907 13.6435 106.575 13.2737C107.253 12.893 108.03 12.7027 108.905 12.7027C109.759 12.7027 110.514 12.8876 111.17 13.2574C111.827 13.6272 112.33 14.1384 112.68 14.7909C113.041 15.4327 113.222 16.1614 113.222 16.9771ZM111.679 16.6671C111.679 16.1016 111.553 15.6176 111.302 15.2151C111.05 14.8018 110.705 14.4918 110.268 14.2852C109.841 14.0677 109.365 13.9589 108.84 13.9589C108.085 13.9589 107.439 14.1982 106.903 14.6767C106.378 15.1553 106.077 15.8188 106 16.6671H111.679Z" fill="white"/>
<path fill-rule="evenodd" clip-rule="evenodd" d="M8.39499 3.51126C10.3242 1.11828 13.1852 0 16.7833 0C19.5161 0 21.7073 0.765347 23.3958 2.05086C25.0757 3.32971 26.1971 5.07629 26.8823 6.94905C28.0285 10.0815 28.0001 13.6913 27.2191 16.4234H27.4934C29.723 16.4234 31.3118 18.4038 31.3118 20.5177C31.3118 22.6316 29.723 24.612 27.4934 24.612H5.50951C2.38119 24.612 0 21.8021 0 18.6135C0 15.425 2.38119 12.6151 5.50951 12.6151H5.65281C5.77819 8.75474 6.64768 5.67858 8.39499 3.51126ZM9.952 4.76654C8.4655 6.61036 7.63689 9.49692 7.63689 13.6151C7.63689 14.1674 7.18918 14.6151 6.63689 14.6151H5.50951C3.67737 14.6151 2 16.3277 2 18.6135C2 20.8994 3.67737 22.612 5.50951 22.612H27.4934C28.4204 22.612 29.3118 21.7361 29.3118 20.5177C29.3118 19.2993 28.4204 18.4234 27.4934 18.4234H25.8023C25.4644 18.4234 25.1493 18.2528 24.9647 17.9697C24.7801 17.6866 24.751 17.3295 24.8872 17.0202C25.909 14.7012 26.1848 10.8631 25.0041 7.6363C24.4211 6.04288 23.4991 4.64312 22.1844 3.64218C20.8783 2.6479 19.1236 2 16.7833 2C13.6171 2 11.4049 2.96441 9.952 4.76654Z" fill="white"/>
<path d="M17.9792 12.0739C18.4176 11.5141 18.5768 10.7597 18.3376 10.0436C18.0035 9.04369 17.0027 8.45025 15.978 8.5775L15.7561 7.91331C15.718 7.79928 15.5928 7.73795 15.4764 7.77684C15.36 7.81573 15.2965 7.9401 15.3346 8.05413L15.5423 8.67586C15.5407 8.67637 15.5392 8.67689 15.538 8.67731L14.6903 8.96049L14.4826 8.33876C14.4445 8.22472 14.319 8.16349 14.2026 8.20238C14.0862 8.24128 14.0227 8.36565 14.0608 8.47968L14.2685 9.1014L13.2952 9.42657L13.295 9.42597L12.3757 9.73309C12.2593 9.77198 12.1958 9.89636 12.234 10.0107C12.2722 10.125 12.3977 10.1863 12.5141 10.1474L13.1465 9.93609L15.6366 17.3896L15.0042 17.6008C14.8877 17.6397 14.8242 17.7641 14.8624 17.8784C14.9006 17.9928 15.0261 18.054 15.1426 18.0151L17.0352 17.3828L17.2426 18.0037C17.2808 18.118 17.4063 18.1792 17.5227 18.1403C17.6391 18.1014 17.7026 17.9771 17.6644 17.8627L17.457 17.2419L18.309 16.9573L18.5164 17.5781C18.5546 17.6925 18.6801 17.7537 18.7965 17.7148C18.9129 17.6759 18.9761 17.5516 18.9379 17.4373L18.7305 16.8165L18.9371 16.7475C20.2176 16.3197 20.9152 14.9532 20.4949 13.6952C20.136 12.6209 19.0781 11.9737 17.9792 12.0739ZM13.5682 9.79588L15.6764 9.09159C16.1266 8.94118 16.6078 8.9719 17.0307 9.17822C17.4538 9.38443 17.7682 9.74195 17.916 10.1844C18.0639 10.6269 18.0274 11.1013 17.8132 11.5205C17.6043 11.9301 17.2506 12.2387 16.8144 12.3932L14.6747 13.108L13.5682 9.79588ZM19.9578 15.3394C19.7172 15.8112 19.3054 16.1639 18.7986 16.3332L16.0581 17.2488L14.8132 13.5226L16.9214 12.8183C16.9316 12.8149 16.9417 12.8112 16.9515 12.8076L17.5536 12.6064C18.0604 12.4372 18.6017 12.4721 19.0774 12.7042C19.5535 12.9362 19.9071 13.3383 20.0734 13.836C20.2398 14.334 20.1987 14.8676 19.9578 15.3394Z" fill="white"/>
<path fill-rule="evenodd" clip-rule="evenodd" d="M16.1486 9.00031C16.4509 8.98303 16.7532 9.04281 17.0305 9.1781C17.4536 9.38432 17.7681 9.74184 17.9159 10.1843C18.0637 10.6268 18.0272 11.1012 17.813 11.5204C17.7617 11.621 17.7016 11.7156 17.6337 11.8033C17.5359 11.9295 17.422 12.0414 17.2946 12.1367C17.2693 12.1557 17.2435 12.1739 17.2171 12.1915C17.0933 12.2742 16.9583 12.3421 16.8143 12.3931L14.6746 13.1079L13.5681 9.79576L15.6762 9.09148C15.6777 9.091 15.6791 9.09052 15.6805 9.09004C15.7961 9.05175 15.9136 9.02539 16.0317 9.01084C16.0706 9.00605 16.1096 9.00254 16.1486 9.00031ZM16.0343 8.5711C16.4511 8.53003 16.8619 8.60747 17.2234 8.78222C17.2235 8.78225 17.2234 8.78218 17.2234 8.78222C17.7335 9.0288 18.1455 9.46914 18.3374 10.0435C18.5099 10.5597 18.4753 11.0958 18.2783 11.5646C18.2561 11.6175 18.2318 11.6695 18.2055 11.7205C18.2054 11.7206 18.2056 11.7203 18.2055 11.7205C18.1544 11.8196 18.0956 11.9155 18.0298 12.0063C18.0133 12.0291 17.9964 12.0516 17.979 12.0738C18.0062 12.0713 18.0334 12.0693 18.0606 12.0677C18.2331 12.0577 18.4042 12.0661 18.5714 12.0915C18.8155 12.1286 19.0511 12.2021 19.2703 12.3081C19.2703 12.3081 19.2702 12.3081 19.2703 12.3081C19.8309 12.5793 20.2837 13.0634 20.4947 13.6951C20.7058 14.3267 20.635 14.9857 20.3501 15.5395C20.3501 15.5395 20.3501 15.5394 20.3501 15.5395C20.0676 16.0886 19.5745 16.5344 18.9369 16.7474L18.7303 16.8164L18.9377 17.4372C18.9759 17.5515 18.9128 17.6758 18.7963 17.7147C18.6799 17.7536 18.5544 17.6923 18.5162 17.578L18.3088 16.9572L17.4569 17.2418L17.6643 17.8626C17.7025 17.977 17.639 18.1013 17.5225 18.1402C17.4061 18.1791 17.2806 18.1179 17.2424 18.0035L17.035 17.3827L15.1424 18.015C15.026 18.0539 14.9005 17.9927 14.8623 17.8783C14.8241 17.764 14.8876 17.6396 15.004 17.6007L15.6364 17.3895L13.1466 9.93658L12.514 10.1473C12.514 10.1473 12.514 10.1473 12.514 10.1473C12.3975 10.1861 12.272 10.1249 12.2338 10.0106C12.1957 9.89625 12.2591 9.77186 12.3755 9.73297L13.2948 9.42586L14.2684 9.10129L14.0607 8.47957C14.0606 8.47954 14.0607 8.47959 14.0607 8.47957C14.0226 8.36555 14.0861 8.24116 14.2025 8.20227C14.3189 8.16338 14.4444 8.22461 14.4825 8.33865L14.6902 8.96037L15.5421 8.67574L15.3345 8.05409C15.2964 7.94006 15.3598 7.81562 15.4762 7.77673C15.5927 7.73783 15.7179 7.79916 15.756 7.91319L15.9779 8.57738C15.9967 8.57505 16.0155 8.57295 16.0343 8.5711ZM16.3327 8.06152L16.2302 7.75476C16.102 7.3713 15.6885 7.17866 15.3178 7.30249C15.0344 7.39718 14.8411 7.65549 14.8242 7.94409C14.6372 7.72361 14.3274 7.63335 14.044 7.72803C13.6743 7.85157 13.458 8.25357 13.5864 8.638L13.6357 8.78549L13.6108 8.79379L12.2171 9.25874C11.8468 9.38244 11.6313 9.7848 11.7596 10.169C11.888 10.5532 12.3021 10.7452 12.6724 10.6215L12.8306 10.5686L15.0038 17.0736L14.8456 17.1265C14.4753 17.2502 14.2597 17.6525 14.3881 18.0368C14.5164 18.421 14.9306 18.6129 15.3008 18.4893L16.7192 18.0154L16.7682 18.162C16.8966 18.5463 17.3107 18.7382 17.681 18.6145C17.9647 18.5197 18.1577 18.2612 18.1746 17.9727C18.3615 18.1931 18.671 18.2837 18.9548 18.1889C19.3259 18.0649 19.54 17.6621 19.412 17.2788L19.3588 17.1197C20.725 16.516 21.4494 14.9747 20.969 13.5366C20.6292 12.5196 19.7761 11.8236 18.7917 11.6231C18.9861 11.0808 19.0081 10.4732 18.8116 9.88507C18.4448 8.78699 17.431 8.09362 16.3327 8.06152ZM16.0579 17.2486L18.7985 16.3331C19.3052 16.1638 19.7171 15.8111 19.9576 15.3393C20.1985 14.8674 20.2396 14.3339 20.0732 13.8359C19.907 13.3382 19.5533 12.9361 19.0773 12.7041C18.745 12.542 18.3808 12.476 18.0186 12.5087C17.8623 12.5228 17.7063 12.5553 17.5535 12.6063L16.9513 12.8075L16.9503 12.8079C16.9409 12.8113 16.9311 12.8149 16.9213 12.8182L14.8131 13.5225L16.0579 17.2486ZM15.4458 13.8383L16.3737 16.616L18.6401 15.8588C19.024 15.7306 19.3319 15.4657 19.5122 15.1122C19.6928 14.7585 19.7224 14.3637 19.599 13.9943C19.4757 13.6251 19.2147 13.3273 18.8582 13.1536C18.5013 12.9794 18.0955 12.9524 17.7119 13.0806L17.1167 13.2794C17.1075 13.2828 17.094 13.2877 17.0797 13.2924L15.4458 13.8383ZM14.2007 10.1116L15.8347 9.56571C16.1619 9.45638 16.5074 9.47922 16.8112 9.62746C17.1148 9.77538 17.3367 10.0287 17.4417 10.3428C17.5465 10.6567 17.5215 10.9921 17.3678 11.2928C17.2183 11.5859 16.9662 11.8078 16.6512 11.9204L14.9904 12.4752L14.2007 10.1116Z" fill="white"/>
</svg>
