<svg width="17" height="16" viewBox="0 0 17 16" fill="none" xmlns="http://www.w3.org/2000/svg">
<path fill-rule="evenodd" clip-rule="evenodd" d="M0.295735 4.47374C0.43002 4.23245 0.734486 4.1457 0.975779 4.27999L8.37174 8.396L15.7677 4.27999C16.009 4.1457 16.3135 4.23245 16.4477 4.47374C16.582 4.71504 16.4953 5.0195 16.254 5.15379L8.61488 9.40511C8.4637 9.48925 8.27977 9.48925 8.12859 9.40511L0.489491 5.15379C0.248198 5.0195 0.161451 4.71504 0.295735 4.47374Z" fill="url(#paint0_linear_41_108)"/>
<path fill-rule="evenodd" clip-rule="evenodd" d="M1.75042 1.49683C1.48417 1.49683 1.23187 1.72885 1.23187 2.05966V13.7508C1.23187 14.0816 1.48417 14.3136 1.75042 14.3136H14.9915C15.2578 14.3136 15.5101 14.0816 15.5101 13.7508V2.05966C15.5101 1.72885 15.2578 1.49683 14.9915 1.49683H1.75042ZM0.231873 2.05966C0.231873 1.2171 0.892197 0.496826 1.75042 0.496826H14.9915C15.8498 0.496826 16.5101 1.2171 16.5101 2.05966V13.7508C16.5101 14.5934 15.8498 15.3136 14.9915 15.3136H1.75042C0.892197 15.3136 0.231873 14.5934 0.231873 13.7508V2.05966Z" fill="url(#paint1_linear_41_108)"/>
<defs>
<linearGradient id="paint0_linear_41_108" x1="9.18566" y1="3.39018" x2="9.28132" y2="12.7014" gradientUnits="userSpaceOnUse">
<stop stop-color="#FD749B"/>
<stop offset="1" stop-color="#281AC8"/>
</linearGradient>
<linearGradient id="paint1_linear_41_108" x1="9.18489" y1="-1.83545" x2="9.94591" y2="24.4168" gradientUnits="userSpaceOnUse">
<stop stop-color="#FD749B"/>
<stop offset="1" stop-color="#281AC8"/>
</linearGradient>
</defs>
</svg>
