<svg width="70" height="40" viewBox="0 0 70 40" fill="none" xmlns="http://www.w3.org/2000/svg">
<path d="M0.257324 5C0.257324 2.23857 2.4959 0 5.25732 0H64.8076C67.569 0 69.8075 2.23858 69.8075 5V34.0135C69.8075 36.775 67.569 39.0135 64.8075 39.0135H5.25732C2.49589 39.0135 0.257324 36.775 0.257324 34.0135V5Z" fill="url(#paint0_linear_41_70)"/>
<path d="M24.0327 25.6431C24.0327 24.6766 24.8162 23.8931 25.7827 23.8931H44.2827C45.2492 23.8931 46.0327 24.6766 46.0327 25.6431C46.0327 26.6096 45.2492 27.3931 44.2827 27.3931H25.7827C24.8162 27.3931 24.0327 26.6096 24.0327 25.6431Z" fill="white"/>
<path d="M18.0386 17.6431C18.0386 16.1499 19.249 14.9395 20.7422 14.9395H49.3232C50.8164 14.9395 52.0269 16.1499 52.0269 17.6431C52.0269 19.1362 50.8164 20.3467 49.3232 20.3467H20.7422C19.249 20.3467 18.0386 19.1362 18.0386 17.6431Z" fill="white"/>
<defs>
<linearGradient id="paint0_linear_41_70" x1="38.51" y1="-6.14102" x2="39.7455" y2="63.0186" gradientUnits="userSpaceOnUse">
<stop stop-color="#FD749B"/>
<stop offset="1" stop-color="#281AC8"/>
</linearGradient>
</defs>
</svg>
