<svg width="13" height="18" viewBox="0 0 13 18" fill="none" xmlns="http://www.w3.org/2000/svg">
<path fill-rule="evenodd" clip-rule="evenodd" d="M6.30775 1.22461C3.47782 1.22461 1.13931 3.65088 1.13931 6.70009C1.13931 8.97787 2.47308 11.4479 3.87937 13.4021C4.57419 14.3676 5.27002 15.1846 5.79234 15.7602C5.99369 15.9821 6.16886 16.1677 6.30775 16.3117C6.44663 16.1677 6.62181 15.9821 6.82315 15.7602C7.34547 15.1846 8.04131 14.3676 8.73613 13.4021C10.1424 11.4479 11.4762 8.97787 11.4762 6.70009C11.4762 3.65088 9.13767 1.22461 6.30775 1.22461ZM6.30775 17.0214C5.9618 17.3824 5.96169 17.3823 5.96157 17.3821L5.96122 17.3818L5.96013 17.3808L5.95641 17.3772L5.94294 17.3641C5.93134 17.3528 5.91452 17.3364 5.89284 17.315C5.84949 17.2722 5.78666 17.2095 5.70716 17.1284C5.54817 16.9663 5.32228 16.7303 5.05177 16.4322C4.51125 15.8365 3.78998 14.9898 3.06769 13.9862C1.63977 12.0019 0.139313 9.31132 0.139313 6.70009C0.139313 3.14896 2.87649 0.224609 6.30775 0.224609C9.73901 0.224609 12.4762 3.14896 12.4762 6.70009C12.4762 9.31132 10.9757 12.0019 9.5478 13.9862C8.82552 14.9898 8.10424 15.8365 7.56373 16.4322C7.29322 16.7303 7.06732 16.9663 6.90834 17.1284C6.82883 17.2095 6.76601 17.2722 6.72266 17.315C6.70098 17.3364 6.68416 17.3528 6.67255 17.3641L6.65909 17.3772L6.65537 17.3808L6.65428 17.3818L6.65392 17.3821C6.6538 17.3823 6.6537 17.3824 6.30775 17.0214ZM6.30775 17.0214L6.6537 17.3824C6.4603 17.5677 6.1552 17.5677 5.9618 17.3824L6.30775 17.0214Z" fill="url(#paint0_linear_41_101)"/>
<path fill-rule="evenodd" clip-rule="evenodd" d="M3.23132 6.69965C3.23132 4.94861 4.58422 3.48352 6.30788 3.48352C8.03155 3.48352 9.38445 4.94861 9.38445 6.69965C9.38445 8.45068 8.03155 9.91577 6.30788 9.91577C4.58422 9.91577 3.23132 8.45068 3.23132 6.69965ZM6.30788 4.48352C5.18556 4.48352 4.23132 5.45053 4.23132 6.69965C4.23132 7.94876 5.18556 8.91577 6.30788 8.91577C7.43021 8.91577 8.38445 7.94876 8.38445 6.69965C8.38445 5.45053 7.43021 4.48352 6.30788 4.48352Z" fill="url(#paint1_linear_41_101)"/>
<defs>
<linearGradient id="paint0_linear_41_101" x1="6.92459" y1="-2.49803" x2="8.29144" y2="28.1128" gradientUnits="userSpaceOnUse">
<stop stop-color="#FD749B"/>
<stop offset="1" stop-color="#281AC8"/>
</linearGradient>
<linearGradient id="paint1_linear_41_101" x1="6.61554" y1="2.47104" x2="6.99486" y2="13.8646" gradientUnits="userSpaceOnUse">
<stop stop-color="#FD749B"/>
<stop offset="1" stop-color="#281AC8"/>
</linearGradient>
</defs>
</svg>
