<svg width="16" height="17" viewBox="0 0 16 17" fill="none" xmlns="http://www.w3.org/2000/svg">
<path fill-rule="evenodd" clip-rule="evenodd" d="M3.24557 0.286011C3.38241 0.286011 3.51327 0.342093 3.60764 0.441183L6.6443 3.62968C6.82821 3.82278 6.82821 4.12623 6.6443 4.31933L4.94827 6.10017L10.3311 11.7522L11.9935 10.0067C12.0879 9.90758 12.2187 9.8515 12.3556 9.8515C12.4924 9.8515 12.6233 9.90758 12.7176 10.0067L15.7543 13.1952C15.9382 13.3883 15.9382 13.6917 15.7543 13.8848L13.7298 16.0105C13.6355 16.1096 13.5046 16.1657 13.3678 16.1657C6.36094 16.1657 0.72113 10.2079 0.72113 2.91167C0.72113 2.78329 0.770518 2.65982 0.859061 2.56685L2.8835 0.441183C2.97787 0.342093 3.10873 0.286011 3.24557 0.286011ZM1.72262 3.11011C1.82235 9.73344 6.90563 15.0457 13.1554 15.1637L14.7017 13.54L12.3556 11.0765L10.6932 12.822C10.5988 12.9211 10.468 12.9772 10.3311 12.9772C10.1943 12.9772 10.0634 12.9211 9.96905 12.822L3.89572 6.445C3.71182 6.25189 3.71182 5.94844 3.89572 5.75534L5.59176 3.97451L3.24557 1.51101L1.72262 3.11011Z" fill="url(#paint0_linear_41_104)"/>
<path fill-rule="evenodd" clip-rule="evenodd" d="M8.31247 3.97412C8.31247 3.69798 8.53633 3.47412 8.81247 3.47412C11.0679 3.47412 12.8552 5.3867 12.8552 7.69403C12.8552 7.97017 12.6314 8.19403 12.3552 8.19403C12.0791 8.19403 11.8552 7.97017 11.8552 7.69403C11.8552 5.89245 10.4702 4.47412 8.81247 4.47412C8.53633 4.47412 8.31247 4.25026 8.31247 3.97412Z" fill="url(#paint1_linear_41_104)"/>
<path fill-rule="evenodd" clip-rule="evenodd" d="M8.31247 0.785645C8.31247 0.509502 8.53633 0.285645 8.81247 0.285645C12.7452 0.285645 15.8919 3.62561 15.8919 7.69405C15.8919 7.97019 15.668 8.19405 15.3919 8.19405C15.1158 8.19405 14.8919 7.97019 14.8919 7.69405C14.8919 4.13136 12.1475 1.28564 8.81247 1.28564C8.53633 1.28564 8.31247 1.06179 8.31247 0.785645Z" fill="url(#paint2_linear_41_104)"/>
<defs>
<linearGradient id="paint0_linear_41_104" x1="9.06523" y1="-2.21356" x2="10.0029" y2="25.9142" gradientUnits="userSpaceOnUse">
<stop stop-color="#FD749B"/>
<stop offset="1" stop-color="#281AC8"/>
</linearGradient>
<linearGradient id="paint1_linear_41_104" x1="10.811" y1="2.73117" x2="11.0876" y2="11.0917" gradientUnits="userSpaceOnUse">
<stop stop-color="#FD749B"/>
<stop offset="1" stop-color="#281AC8"/>
</linearGradient>
<linearGradient id="paint2_linear_41_104" x1="12.4812" y1="-0.959197" x2="12.9467" y2="13.0491" gradientUnits="userSpaceOnUse">
<stop stop-color="#FD749B"/>
<stop offset="1" stop-color="#281AC8"/>
</linearGradient>
</defs>
</svg>
