<svg width="114" height="25" fill="none" xmlns="http://www.w3.org/2000/svg"><path d="M37.011 16.096c0-1.11.252-2.104.755-2.986a5.47 5.47 0 012.052-2.088c.875-.5 1.843-.75 2.905-.75 1.247 0 2.336.299 3.266.897.93.598 1.608 1.447 2.035 2.545h-1.789c-.317-.685-.777-1.213-1.379-1.582-.59-.37-1.302-.555-2.133-.555-.799 0-1.516.185-2.15.555a3.877 3.877 0 00-1.494 1.582c-.36.675-.541 1.468-.541 2.382 0 .903.18 1.697.541 2.382a3.901 3.901 0 001.494 1.566c.634.37 1.351.555 2.15.555.831 0 1.543-.18 2.133-.538.602-.37 1.062-.898 1.38-1.583h1.788c-.427 1.088-1.105 1.93-2.035 2.529-.93.587-2.019.88-3.266.88-1.062 0-2.03-.244-2.905-.733a5.502 5.502 0 01-2.052-2.072c-.503-.881-.755-1.877-.755-2.986zm17.159 5.841c-.842 0-1.608-.19-2.298-.571a4.163 4.163 0 01-1.608-1.615c-.383-.707-.575-1.523-.575-2.448 0-.913.197-1.718.591-2.414a4.101 4.101 0 011.642-1.615c.689-.381 1.46-.571 2.314-.571.853 0 1.625.19 2.314.57a4.02 4.02 0 011.625 1.6c.405.696.607 1.506.607 2.43 0 .925-.208 1.74-.623 2.448a4.214 4.214 0 01-1.658 1.615c-.7.38-1.477.57-2.33.57zm0-1.305c.536 0 1.04-.126 1.51-.376s.848-.625 1.133-1.125c.295-.5.443-1.11.443-1.828s-.142-1.327-.427-1.827c-.284-.5-.657-.87-1.116-1.11a3.074 3.074 0 00-1.494-.374 3.11 3.11 0 00-1.51.375c-.448.239-.81.609-1.083 1.11-.273.5-.41 1.108-.41 1.826 0 .73.131 1.344.394 1.844.273.5.634.876 1.083 1.126.449.239.941.359 1.477.359zm7.347-9.234a.985.985 0 01-.722-.294.974.974 0 01-.295-.718c0-.283.098-.522.295-.718a.985.985 0 01.722-.293c.274 0 .504.097.69.293a.974.974 0 01.295.718.974.974 0 01-.295.718.913.913 0 01-.69.294zm.722 1.452v8.94h-1.493v-8.94h1.493zm6.928-.164c1.094 0 1.98.332 2.66.996.677.652 1.017 1.598 1.017 2.838v5.27h-1.477v-5.058c0-.891-.225-1.571-.673-2.039-.449-.479-1.062-.718-1.839-.718-.787 0-1.417.245-1.887.734-.46.49-.69 1.202-.69 2.138v4.943h-1.493v-8.94h1.494v1.272a2.96 2.96 0 011.198-1.06 3.812 3.812 0 011.69-.376zm11.844 3.247a2.37 2.37 0 011.133.506c.35.272.624.609.82 1.011.209.403.313.832.313 1.29 0 .576-.148 1.098-.444 1.565-.295.457-.727.821-1.296 1.093-.558.261-1.22.392-1.986.392h-4.268V10.419h4.104c.776 0 1.439.13 1.986.391.547.25.957.593 1.23 1.028a2.7 2.7 0 01.41 1.468c0 .675-.185 1.235-.557 1.68-.361.436-.843.751-1.445.947zm-4.234-.604h2.511c.7 0 1.242-.163 1.625-.49.383-.325.575-.777.575-1.353 0-.577-.192-1.028-.575-1.354-.383-.327-.935-.49-1.658-.49h-2.478v3.687zm2.642 5.237c.745 0 1.324-.174 1.74-.522.416-.348.624-.832.624-1.452 0-.63-.219-1.125-.657-1.484-.437-.37-1.023-.555-1.756-.555h-2.593v4.013h2.642zm5.372-3.279c0-.913.186-1.713.558-2.398a4.04 4.04 0 011.526-1.615 4.272 4.272 0 012.183-.571c.788 0 1.472.168 2.052.505.58.338 1.012.762 1.297 1.273V12.85h1.51v8.94h-1.51v-1.664c-.296.522-.739.957-1.33 1.305-.58.337-1.258.506-2.035.506a4.09 4.09 0 01-2.166-.588 4.128 4.128 0 01-1.527-1.647c-.372-.707-.558-1.512-.558-2.415zm7.616.016c0-.674-.137-1.261-.41-1.762A2.816 2.816 0 0090.88 14.4a2.942 2.942 0 00-1.526-.407 3.04 3.04 0 00-1.527.391 2.85 2.85 0 00-1.1 1.142c-.273.5-.41 1.088-.41 1.762 0 .685.137 1.284.41 1.795.274.5.64.886 1.1 1.158.46.261.969.392 1.527.392.558 0 1.067-.131 1.526-.392.47-.272.843-.658 1.116-1.158.274-.512.41-1.104.41-1.779zm7.218 4.634c-.69 0-1.308-.114-1.855-.343-.547-.24-.98-.566-1.297-.979a2.635 2.635 0 01-.525-1.452h1.543c.044.446.252.81.624 1.093.383.283.88.424 1.493.424.569 0 1.018-.125 1.346-.375.328-.25.492-.565.492-.946 0-.392-.175-.68-.525-.865-.35-.195-.892-.386-1.625-.57a13.427 13.427 0 01-1.64-.523 3.115 3.115 0 01-1.084-.8c-.296-.358-.443-.826-.443-1.402a2.1 2.1 0 01.41-1.256c.274-.381.662-.68 1.165-.898.504-.228 1.078-.342 1.724-.342.995 0 1.8.25 2.412.75.613.5.941 1.186.985 2.056h-1.493a1.522 1.522 0 00-.575-1.126c-.339-.283-.799-.424-1.379-.424-.536 0-.962.114-1.28.343-.317.228-.476.527-.476.897 0 .293.093.538.28.734.196.185.437.337.722.457.295.108.7.234 1.214.375a12.01 12.01 0 011.576.522 2.62 2.62 0 011.034.75c.295.338.448.778.459 1.322 0 .49-.137.93-.41 1.321-.274.392-.662.702-1.165.93-.493.218-1.062.327-1.707.327zm13.597-4.96c0 .283-.016.582-.049.897h-7.189c.055.881.356 1.572.903 2.072.558.49 1.231.734 2.018.734.646 0 1.182-.146 1.609-.44a2.4 2.4 0 00.919-1.207h1.608a3.879 3.879 0 01-1.444 2.104c-.722.533-1.619.8-2.692.8-.853 0-1.619-.19-2.297-.571a4.08 4.08 0 01-1.576-1.615c-.383-.707-.574-1.523-.574-2.448 0-.924.186-1.734.558-2.43a3.862 3.862 0 011.559-1.6c.678-.38 1.455-.57 2.33-.57.854 0 1.609.185 2.265.554a3.78 3.78 0 011.51 1.534c.361.642.542 1.37.542 2.186zm-1.543-.31c0-.565-.126-1.05-.377-1.452a2.376 2.376 0 00-1.034-.93 3.1 3.1 0 00-1.428-.326c-.755 0-1.401.24-1.937.718-.525.478-.826 1.142-.903 1.99h5.679z" fill="#5C5C5C"/><path fill-rule="evenodd" clip-rule="evenodd" d="M8.395 3.511C10.325 1.118 13.185 0 16.783 0c2.733 0 4.924.765 6.613 2.05 1.68 1.28 2.801 3.026 3.486 4.899 1.146 3.133 1.118 6.742.337 9.474h.274c2.23 0 3.819 1.98 3.819 4.095 0 2.114-1.589 4.094-3.819 4.094H5.51c-3.129 0-5.51-2.81-5.51-5.998 0-3.189 2.381-5.999 5.51-5.999h.143c.125-3.86.995-6.936 2.742-9.104zm1.557 1.256c-1.486 1.843-2.315 4.73-2.315 8.848a1 1 0 01-1 1H5.51c-1.833 0-3.51 1.713-3.51 3.998 0 2.286 1.677 3.999 3.51 3.999h21.983c.927 0 1.819-.876 1.819-2.094 0-1.219-.892-2.095-1.819-2.095h-1.69a1 1 0 01-.916-1.403c1.022-2.319 1.298-6.157.117-9.384-.583-1.593-1.505-2.993-2.82-3.994C20.878 2.648 19.124 2 16.784 2c-3.167 0-5.38.964-6.832 2.767z" fill="url(#paint0_linear_41_49)"/><path d="M17.98 12.074a2.17 2.17 0 00.358-2.03c-.335-1-1.335-1.594-2.36-1.466l-.222-.665a.22.22 0 00-.28-.136.22.22 0 00-.141.277l.207.622a.16.16 0 00-.004.001l-.848.283-.207-.621a.22.22 0 00-.28-.137.22.22 0 00-.142.278l.207.621-.973.326v-.001l-.92.307a.22.22 0 00-.141.278.22.22 0 00.28.136l.633-.21 2.49 7.453-.633.21a.22.22 0 00-.142.278.22.22 0 00.28.137l1.893-.632.208.62a.22.22 0 00.28.137.22.22 0 00.141-.277l-.207-.621.852-.285.207.621a.22.22 0 00.28.137.22.22 0 00.142-.278l-.207-.62.206-.07c1.28-.427 1.978-1.794 1.558-3.052-.359-1.074-1.417-1.721-2.516-1.621zm-4.412-2.278l2.108-.704c.45-.15.932-.12 1.355.086a1.72 1.72 0 01.782 2.343 1.78 1.78 0 01-.999.872l-2.14.715-1.106-3.312zm6.39 5.543c-.24.472-.653.825-1.16.994l-2.74.916-1.245-3.726 2.108-.705.03-.01.603-.202a2.006 2.006 0 011.523.098c.476.232.83.634.996 1.132a1.934 1.934 0 01-.115 1.503z" fill="#fff"/><path fill-rule="evenodd" clip-rule="evenodd" d="M16.149 9c.302-.017.604.043.881.178.424.206.738.564.886 1.006.148.443.111.917-.103 1.336a1.79 1.79 0 01-.596.671 1.81 1.81 0 01-.403.202l-2.14.715-1.106-3.312 2.108-.705A1.827 1.827 0 0116.148 9zm-.115-.429a2.23 2.23 0 011.19.211 2.157 2.157 0 01.982 2.938 2.227 2.227 0 01-.227.354 2.487 2.487 0 01.592.018c.244.037.48.11.7.216a2.372 2.372 0 011.08 3.232 2.46 2.46 0 01-1.414 1.207l-.207.07.208.62a.22.22 0 01-.142.278.22.22 0 01-.28-.137l-.207-.62-.852.284.207.62a.22.22 0 01-.142.278.22.22 0 01-.28-.137l-.207-.62-1.893.632a.22.22 0 01-.28-.137.22.22 0 01.142-.277l.632-.211-2.49-7.453-.632.21a.22.22 0 01-.28-.136.22.22 0 01.142-.278l.919-.307.973-.325-.207-.621a.22.22 0 01.142-.278.22.22 0 01.28.137l.207.621.852-.284-.207-.622a.22.22 0 01.141-.277.22.22 0 01.28.136l.222.664a2.25 2.25 0 01.056-.006zm.299-.51l-.103-.306a.72.72 0 00-.912-.453.725.725 0 00-.494.642.725.725 0 00-.78-.216.72.72 0 00-.458.91l.05.147-.025.009-1.394.465a.72.72 0 00-.457.91.72.72 0 00.912.452l.159-.052 2.173 6.505-.158.052a.72.72 0 00-.458.91.72.72 0 00.913.453l1.418-.474.05.147a.725.725 0 001.406-.19.723.723 0 00.78.217.72.72 0 00.457-.91l-.053-.16c1.366-.603 2.09-2.144 1.61-3.582a2.89 2.89 0 00-2.177-1.914c.194-.542.216-1.15.02-1.738a2.685 2.685 0 00-2.48-1.823zm-.275 9.188l2.74-.916c.507-.17.92-.522 1.16-.994.24-.472.282-1.005.115-1.503-.166-.498-.52-.9-.996-1.132a1.998 1.998 0 00-1.524-.098l-.602.201-.03.011-2.108.705 1.245 3.726zm-.612-3.41l.928 2.777 2.266-.757c.384-.128.692-.393.872-.747.18-.354.21-.748.087-1.118a1.433 1.433 0 00-.74-.84 1.506 1.506 0 00-1.147-.073l-.595.198-.037.013-1.634.546zM14.2 10.111l1.634-.546a1.28 1.28 0 01.976.061c.304.148.526.402.63.716.106.314.08.65-.073.95a1.28 1.28 0 01-.717.627l-1.66.555-.79-2.363z" fill="url(#paint1_linear_41_49)"/><defs><linearGradient id="paint0_linear_41_49" x1="15.656" y1="0" x2="15.656" y2="24.612" gradientUnits="userSpaceOnUse"><stop stop-color="#FD749B"/><stop offset="1" stop-color="#281AC8"/></linearGradient><linearGradient id="paint1_linear_41_49" x1="14.892" y1="7.445" x2="18.529" y2="18.331" gradientUnits="userSpaceOnUse"><stop stop-color="#FD749B"/><stop offset="1" stop-color="#281AC8"/></linearGradient></defs></svg>