<svg width="308" height="214" viewBox="0 0 308 214" fill="none" xmlns="http://www.w3.org/2000/svg">
<path d="M0 19.9547C0 8.934 8.934 0 19.9547 0H288.045C299.066 0 308 8.934 308 19.9547V194.045C308 205.066 299.066 214 288.045 214H19.9547C8.93401 214 0 205.066 0 194.045V19.9547Z" fill="#150B00"/>
<path d="M119.494 158.999H113.023L111.831 162.298H109.788L115.152 147.548H117.387L122.729 162.298H120.686L119.494 158.999ZM118.941 157.424L116.259 149.932L113.577 157.424H118.941Z" fill="white"/>
<path d="M139.094 150.421C140.002 150.421 140.811 150.613 141.52 150.996C142.23 151.365 142.79 151.925 143.202 152.677C143.613 153.429 143.819 154.345 143.819 155.423V162.298H141.903V155.7C141.903 154.536 141.613 153.649 141.031 153.039C140.463 152.415 139.69 152.103 138.711 152.103C137.703 152.103 136.901 152.429 136.305 153.082C135.71 153.72 135.412 154.65 135.412 155.87V162.298H133.496V155.7C133.496 154.536 133.205 153.649 132.623 153.039C132.056 152.415 131.282 152.103 130.303 152.103C129.296 152.103 128.494 152.429 127.898 153.082C127.302 153.72 127.004 154.65 127.004 155.87V162.298H125.067V150.634H127.004V152.315C127.387 151.705 127.898 151.237 128.536 150.911C129.189 150.584 129.906 150.421 130.686 150.421C131.665 150.421 132.531 150.641 133.283 151.081C134.035 151.521 134.596 152.166 134.965 153.018C135.291 152.195 135.83 151.556 136.582 151.102C137.334 150.648 138.171 150.421 139.094 150.421Z" fill="white"/>
<path d="M146.273 156.423C146.273 155.231 146.514 154.189 146.996 153.295C147.479 152.386 148.139 151.684 148.976 151.187C149.827 150.691 150.771 150.442 151.807 150.442C152.828 150.442 153.715 150.662 154.467 151.102C155.219 151.542 155.78 152.095 156.149 152.762V150.634H158.107V162.298H156.149V160.127C155.766 160.808 155.191 161.376 154.425 161.83C153.673 162.27 152.793 162.49 151.785 162.49C150.75 162.49 149.813 162.234 148.976 161.723C148.139 161.213 147.479 160.496 146.996 159.574C146.514 158.651 146.273 157.601 146.273 156.423ZM156.149 156.445C156.149 155.565 155.972 154.799 155.617 154.146C155.262 153.493 154.78 152.997 154.169 152.656C153.573 152.301 152.914 152.124 152.19 152.124C151.466 152.124 150.806 152.294 150.21 152.635C149.614 152.975 149.139 153.472 148.784 154.125C148.43 154.777 148.252 155.544 148.252 156.423C148.252 157.317 148.43 158.098 148.784 158.765C149.139 159.418 149.614 159.921 150.21 160.276C150.806 160.617 151.466 160.787 152.19 160.787C152.914 160.787 153.573 160.617 154.169 160.276C154.78 159.921 155.262 159.418 155.617 158.765C155.972 158.098 156.149 157.325 156.149 156.445Z" fill="white"/>
<path d="M162.828 160.702H168.553V162.298H160.614V160.702L166.276 152.209H160.657V150.634H168.511V152.209L162.828 160.702Z" fill="white"/>
<path d="M176.154 162.49C175.061 162.49 174.068 162.241 173.174 161.745C172.294 161.248 171.599 160.546 171.088 159.637C170.591 158.715 170.343 157.651 170.343 156.445C170.343 155.253 170.598 154.203 171.109 153.295C171.634 152.372 172.344 151.67 173.238 151.187C174.132 150.691 175.132 150.442 176.239 150.442C177.346 150.442 178.346 150.691 179.24 151.187C180.134 151.67 180.836 152.365 181.347 153.273C181.872 154.181 182.135 155.239 182.135 156.445C182.135 157.651 181.865 158.715 181.326 159.637C180.801 160.546 180.084 161.248 179.176 161.745C178.268 162.241 177.261 162.49 176.154 162.49ZM176.154 160.787C176.849 160.787 177.502 160.624 178.112 160.297C178.722 159.971 179.212 159.481 179.581 158.829C179.964 158.176 180.155 157.381 180.155 156.445C180.155 155.508 179.971 154.714 179.602 154.061C179.233 153.408 178.751 152.926 178.155 152.613C177.559 152.287 176.913 152.124 176.218 152.124C175.508 152.124 174.855 152.287 174.259 152.613C173.678 152.926 173.209 153.408 172.855 154.061C172.5 154.714 172.322 155.508 172.322 156.445C172.322 157.395 172.493 158.197 172.833 158.85C173.188 159.503 173.656 159.992 174.238 160.319C174.82 160.631 175.458 160.787 176.154 160.787Z" fill="white"/>
<path d="M190.365 150.421C191.784 150.421 192.933 150.854 193.813 151.719C194.693 152.571 195.132 153.805 195.132 155.423V162.298H193.217V155.7C193.217 154.536 192.926 153.649 192.344 153.039C191.762 152.415 190.968 152.103 189.96 152.103C188.939 152.103 188.123 152.422 187.512 153.06C186.916 153.699 186.618 154.628 186.618 155.849V162.298H184.682V150.634H186.618V152.294C187.002 151.698 187.52 151.237 188.172 150.911C188.839 150.584 189.57 150.421 190.365 150.421Z" fill="white"/>
<path d="M182.039 122.616C181.378 121.797 175.683 121.091 172.209 123.53C171.679 123.904 171.766 124.421 172.362 124.352C174.316 124.122 178.674 123.599 179.446 124.59C180.221 125.583 178.582 129.683 177.847 131.51C177.622 132.065 178.102 132.288 178.602 131.872C181.868 129.153 182.705 123.443 182.039 122.616Z" fill="#FF8000"/>
<path d="M176.044 126.053C169.24 128.943 161.839 130.334 155.104 130.334C145.133 130.334 135.469 127.603 127.662 123.057C126.981 122.656 126.473 123.357 127.04 123.869C134.278 130.409 143.843 134.341 154.468 134.341C162.05 134.341 170.847 131.956 176.923 127.479C177.926 126.737 177.072 125.622 176.044 126.053Z" fill="#FF8000"/>
<path d="M178.455 110.572C176.413 107.736 174.252 105.446 174.252 100.226V82.8323C174.252 75.4766 174.773 68.7105 169.348 63.6358C165.059 59.5266 157.969 58.0828 152.527 58.0828C141.916 58.0828 130.075 62.0382 127.572 75.1605C127.316 76.5616 128.341 77.2963 129.229 77.5014L140.079 78.6632C141.07 78.6205 141.814 77.6295 142.01 76.6214C142.924 72.1021 146.734 69.9236 150.989 69.9236C153.278 69.9236 155.876 70.7693 157.242 72.8282C158.797 75.1178 158.584 78.2617 158.584 80.9101V82.3453C152.125 83.0971 143.667 83.567 137.602 86.2325C130.631 89.2311 125.701 95.3993 125.701 104.455C125.701 116.048 133.014 121.849 142.403 121.849C150.348 121.849 154.688 119.978 160.805 113.733C162.83 116.672 163.496 118.107 167.204 121.183C168.041 121.627 169.1 121.576 169.844 120.926L169.878 120.943C172.099 118.978 176.14 115.433 178.43 113.536C179.335 112.768 179.181 111.571 178.455 110.572ZM158.584 93.6992C158.584 98.0476 158.703 101.67 156.499 105.531C154.731 108.675 151.92 110.598 148.776 110.598C144.496 110.598 142.01 107.343 142.01 102.516C142.01 93.0072 150.528 91.2815 158.584 91.2815V93.6992Z" fill="#FFFBF7"/>
<path d="M268.667 15.1706C268.419 14.8279 268.014 14.675 267.645 14.675C267.124 14.675 266.638 14.9421 266.424 15.5148C266.176 14.9428 265.83 14.675 265.278 14.675C264.734 14.675 264.33 14.9421 264.114 15.5148H264.099V14.9225C264.094 14.8407 264.025 14.7744 263.939 14.7711H263.116C263.022 14.7711 262.945 14.8434 262.945 14.934V19.4667C262.951 19.5478 263.019 19.6107 263.104 19.6161H263.987C264.081 19.6161 264.157 19.5424 264.157 19.4525V17.0489C264.157 16.5249 264.131 15.7994 264.765 15.7994C265.393 15.7994 265.311 16.5432 265.311 17.0489V19.4518C265.311 19.539 265.381 19.6087 265.471 19.6154H266.352C266.448 19.6154 266.523 19.5417 266.523 19.4518V17.0489C266.523 16.7913 266.515 16.4086 266.604 16.1801C266.695 15.9516 266.919 15.8089 267.132 15.8089C267.389 15.8089 267.586 15.8948 267.652 16.199C267.694 16.3809 267.677 16.8576 267.677 17.0489V19.4518C267.677 19.539 267.748 19.6087 267.836 19.6154H268.718C268.812 19.6154 268.888 19.5417 268.888 19.4518L268.889 16.5918C268.889 16.1057 268.946 15.552 268.667 15.1706Z" fill="#FFFBF7"/>
<path d="M280.307 14.676C279.029 14.676 278.32 15.7734 278.32 17.1837C278.32 18.586 279.02 19.7111 280.307 19.7111C281.543 19.7111 282.326 18.6144 282.326 17.2317C282.33 15.8011 281.618 14.676 280.307 14.676ZM280.307 18.7767C279.614 18.7767 279.622 17.5941 279.622 17.0404C279.622 16.488 279.664 15.601 280.314 15.601C280.593 15.601 280.793 15.724 280.891 16.0398C281.007 16.4021 281.023 16.8592 281.023 17.2419C281.026 17.8233 280.993 18.7767 280.307 18.7767Z" fill="#FFFBF7"/>
<path d="M273.834 18.7874C273.673 18.5629 273.502 18.3817 273.502 17.9686V16.592C273.502 16.0099 273.542 15.4744 273.113 15.0728C272.774 14.7476 272.212 14.6333 271.783 14.6333C270.943 14.6333 270.004 14.9463 269.808 15.9849C269.787 16.0957 269.867 16.1539 269.939 16.1701L270.795 16.2621C270.875 16.2587 270.934 16.1803 270.949 16.1005C271.022 15.7428 271.322 15.5704 271.659 15.5704C271.841 15.5704 272.047 15.6373 272.153 15.8003C272.278 15.9815 272.262 16.2303 272.262 16.4399L272.261 16.5521C271.749 16.6109 271.08 16.6481 270.6 16.8591C270.047 17.0977 269.659 17.5859 269.659 18.3026C269.659 19.2201 270.237 19.6792 270.98 19.6792C271.607 19.6792 271.952 19.5311 272.436 19.0368C272.596 19.2694 272.649 19.383 272.942 19.6264C273.009 19.6616 273.094 19.6575 273.152 19.6061L273.153 19.6075C273.33 19.452 273.65 19.1714 273.829 19.0213C273.9 18.9625 273.89 18.8665 273.834 18.7874ZM272.261 17.452C272.261 17.7962 272.27 18.0828 272.095 18.3884C271.956 18.6373 271.732 18.7894 271.486 18.7894C271.146 18.7894 270.947 18.5318 270.947 18.1498C270.947 17.3973 271.622 17.2607 272.261 17.2607V17.452Z" fill="#FFFBF7"/>
<path d="M286.387 15.2089C286.139 14.8181 285.75 14.6747 285.354 14.6741C284.745 14.6741 284.397 14.9695 284.151 15.5895H284.137V14.8965C284.12 14.8255 284.055 14.7728 283.978 14.7694H283.16C283.07 14.7694 282.997 14.8343 282.989 14.9175L282.991 19.4515C282.991 19.5387 283.06 19.6097 283.15 19.6165H284.028C284.124 19.6165 284.2 19.5428 284.202 19.4515V17.0121C284.202 16.7058 284.217 16.4306 284.343 16.1534C284.441 15.935 284.638 15.791 284.854 15.791C285.462 15.791 285.404 16.5165 285.404 17.0121V19.4738C285.411 19.5502 285.481 19.6097 285.56 19.6172H286.446C286.535 19.6172 286.606 19.5529 286.618 19.4738V16.6206C286.618 16.1818 286.618 15.5726 286.387 15.2089Z" fill="#FFFBF7"/>
<path d="M277.746 18.3889C277.238 18.1036 276.65 18.0198 276.09 18.0339L277.596 15.8866C277.735 15.6932 277.814 15.5722 277.814 15.4789V14.9238C277.814 14.8265 277.74 14.7595 277.646 14.7595H274.744C274.653 14.7595 274.58 14.8251 274.58 14.9238V15.5722C274.58 15.6689 274.653 15.7352 274.748 15.7352H276.265L274.522 18.2341C274.416 18.3943 274.415 18.5742 274.415 18.6796V19.3375C274.415 19.4322 274.523 19.541 274.623 19.4856C275.61 18.9616 276.795 19.0136 277.687 19.4815C277.798 19.5383 277.901 19.4274 277.901 19.3328V18.6404C277.891 18.5478 277.861 18.4525 277.746 18.3889Z" fill="#FFFBF7"/>
<path d="M277.182 20.0306C277.002 19.8068 275.447 19.6141 274.498 20.28C274.353 20.3821 274.377 20.5234 274.54 20.5045C275.073 20.4416 276.263 20.299 276.474 20.5694C276.686 20.8405 276.238 21.9602 276.038 22.4592C275.976 22.6106 276.107 22.6715 276.244 22.5579C277.136 21.8155 277.364 20.2564 277.182 20.0306Z" fill="#FF8000"/>
<path d="M275.55 20.9682C273.692 21.7573 271.671 22.1372 269.832 22.1372C267.11 22.1372 264.471 21.3915 262.339 20.1501C262.153 20.0406 262.014 20.232 262.169 20.3719C264.146 22.1575 266.757 23.2312 269.659 23.2312C271.729 23.2312 274.131 22.5801 275.79 21.3577C276.064 21.1549 275.831 20.8506 275.55 20.9682Z" fill="#FF8000"/>
<path d="M262.255 18.7874C262.094 18.5629 261.922 18.3817 261.922 17.9686V16.592C261.922 16.0099 261.964 15.4744 261.534 15.0728C261.195 14.7476 260.634 14.6333 260.203 14.6333C259.363 14.6333 258.426 14.9463 258.228 15.9849C258.208 16.0957 258.289 16.1539 258.359 16.1701L259.218 16.2621C259.296 16.2587 259.355 16.1803 259.371 16.1005C259.443 15.7428 259.745 15.5704 260.081 15.5704C260.263 15.5704 260.468 15.6373 260.576 15.8003C260.699 15.9815 260.682 16.2303 260.682 16.4399V16.5535C260.171 16.613 259.502 16.6502 259.022 16.8611C258.47 17.0984 258.08 17.5866 258.08 18.3033C258.08 19.2207 258.659 19.6798 259.402 19.6798C260.031 19.6798 260.374 19.5318 260.858 19.0375C261.018 19.2701 261.071 19.3837 261.365 19.6271C261.431 19.6622 261.515 19.6582 261.574 19.6068L261.576 19.6082C261.752 19.4527 262.072 19.1721 262.253 19.022C262.325 18.9611 262.313 18.8665 262.255 18.7874ZM260.682 17.452C260.682 17.7962 260.692 18.0828 260.517 18.3884C260.378 18.6373 260.155 18.7894 259.906 18.7894C259.568 18.7894 259.371 18.5318 259.371 18.1498C259.371 17.3973 260.045 17.2607 260.682 17.2607V17.452Z" fill="#FFFBF7"/>
</svg>
