<svg width="308" height="214" viewBox="0 0 308 214" fill="none" xmlns="http://www.w3.org/2000/svg">
<path d="M0 15C0 6.71573 6.71573 0 15 0H293C301.284 0 308 6.71573 308 15V199C308 207.284 301.284 214 293 214H15C6.71572 214 0 207.284 0 199V15Z" fill="url(#paint0_radial_32_3994)"/>
<path d="M154.232 67.7852C141.962 67.7748 132.01 77.7129 132 89.9824C131.99 102.252 141.928 112.204 154.197 112.214C166.465 112.204 176.41 102.267 176.429 89.9996C176.429 77.737 166.494 67.7955 154.232 67.7852ZM154.197 108.517C143.97 108.517 135.68 100.226 135.68 89.9996C135.68 79.7727 143.97 71.4819 154.197 71.4819C164.421 71.4922 172.705 79.7762 172.715 89.9996C172.715 100.226 164.424 108.517 154.197 108.517Z" fill="white"/>
<path d="M160.197 88.9165C161.682 88.0792 162.485 86.4028 162.208 84.7212C161.864 82.125 158.77 81.1449 156.328 80.9386V77.0356H153.921V80.9042H152.305V77.0356H149.898V80.9042H145.049V83.3974H146.854C147.662 83.3974 148.058 83.6381 148.058 84.2914V95.0032C148.058 95.8972 147.611 96.1724 147.129 96.1724H145.29V98.7171H149.966V102.672H152.391V98.7171H154.007V102.672H156.362V98.7171H156.878C161.83 98.7171 163.481 96.2928 163.481 92.9916C163.441 91.0451 162.091 89.3705 160.197 88.9165ZM152.305 83.5521H154.024C155.228 83.5521 157.6 83.7585 157.6 85.7185C157.683 86.9978 156.756 88.1188 155.485 88.2804H152.305V83.5521ZM154.97 95.9316V95.9144H152.305V90.7562H155.4C156.122 90.7562 158.838 90.997 158.838 92.9227C158.838 94.8484 157.549 95.9316 154.97 95.9316Z" fill="white"/>
<path d="M133.816 152.256C134.222 152.32 134.59 152.485 134.92 152.752C135.262 153.019 135.528 153.349 135.72 153.744C135.923 154.139 136.024 154.56 136.024 155.008C136.024 155.573 135.88 156.085 135.592 156.544C135.304 156.992 134.883 157.349 134.328 157.616C133.784 157.872 133.139 158 132.392 158H128.232V146.848H132.232C132.99 146.848 133.635 146.976 134.168 147.232C134.702 147.477 135.102 147.813 135.368 148.24C135.635 148.667 135.768 149.147 135.768 149.68C135.768 150.341 135.587 150.891 135.224 151.328C134.872 151.755 134.403 152.064 133.816 152.256ZM129.688 151.664H132.136C132.819 151.664 133.347 151.504 133.72 151.184C134.094 150.864 134.28 150.421 134.28 149.856C134.28 149.291 134.094 148.848 133.72 148.528C133.347 148.208 132.808 148.048 132.104 148.048H129.688V151.664ZM132.264 156.8C132.99 156.8 133.555 156.629 133.96 156.288C134.366 155.947 134.568 155.472 134.568 154.864C134.568 154.245 134.355 153.76 133.928 153.408C133.502 153.045 132.931 152.864 132.216 152.864H129.688V156.8H132.264Z" fill="white"/>
<path d="M138.797 147.808C138.52 147.808 138.285 147.712 138.093 147.52C137.901 147.328 137.805 147.093 137.805 146.816C137.805 146.539 137.901 146.304 138.093 146.112C138.285 145.92 138.52 145.824 138.797 145.824C139.064 145.824 139.288 145.92 139.469 146.112C139.661 146.304 139.757 146.539 139.757 146.816C139.757 147.093 139.661 147.328 139.469 147.52C139.288 147.712 139.064 147.808 138.797 147.808ZM139.501 149.232V158H138.045V149.232H139.501Z" fill="white"/>
<path d="M143.758 150.432V155.6C143.758 156.027 143.849 156.331 144.03 156.512C144.212 156.683 144.526 156.768 144.974 156.768H146.046V158H144.734C143.924 158 143.316 157.813 142.91 157.44C142.505 157.067 142.302 156.453 142.302 155.6V150.432H141.166V149.232H142.302V147.024H143.758V149.232H146.046V150.432H143.758Z" fill="white"/>
<path d="M147.267 153.6C147.267 152.693 147.448 151.904 147.811 151.232C148.173 150.549 148.675 150.021 149.315 149.648C149.965 149.275 150.707 149.088 151.539 149.088C152.616 149.088 153.501 149.349 154.195 149.872C154.899 150.395 155.363 151.12 155.587 152.048H154.019C153.869 151.515 153.576 151.093 153.139 150.784C152.712 150.475 152.179 150.32 151.539 150.32C150.707 150.32 150.035 150.608 149.523 151.184C149.011 151.749 148.755 152.555 148.755 153.6C148.755 154.656 149.011 155.472 149.523 156.048C150.035 156.624 150.707 156.912 151.539 156.912C152.179 156.912 152.712 156.763 153.139 156.464C153.565 156.165 153.859 155.739 154.019 155.184H155.587C155.352 156.08 154.883 156.8 154.179 157.344C153.475 157.877 152.595 158.144 151.539 158.144C150.707 158.144 149.965 157.957 149.315 157.584C148.675 157.211 148.173 156.683 147.811 156C147.448 155.317 147.267 154.517 147.267 153.6Z" fill="white"/>
<path d="M161.353 158.144C160.532 158.144 159.785 157.957 159.113 157.584C158.452 157.211 157.929 156.683 157.545 156C157.172 155.307 156.985 154.507 156.985 153.6C156.985 152.704 157.177 151.915 157.561 151.232C157.956 150.539 158.489 150.011 159.161 149.648C159.833 149.275 160.585 149.088 161.417 149.088C162.249 149.088 163.001 149.275 163.673 149.648C164.345 150.011 164.873 150.533 165.257 151.216C165.652 151.899 165.849 152.693 165.849 153.6C165.849 154.507 165.647 155.307 165.241 156C164.847 156.683 164.308 157.211 163.625 157.584C162.943 157.957 162.185 158.144 161.353 158.144ZM161.353 156.864C161.876 156.864 162.367 156.741 162.825 156.496C163.284 156.251 163.652 155.883 163.929 155.392C164.217 154.901 164.361 154.304 164.361 153.6C164.361 152.896 164.223 152.299 163.945 151.808C163.668 151.317 163.305 150.955 162.857 150.72C162.409 150.475 161.924 150.352 161.401 150.352C160.868 150.352 160.377 150.475 159.929 150.72C159.492 150.955 159.14 151.317 158.873 151.808C158.607 152.299 158.473 152.896 158.473 153.6C158.473 154.315 158.601 154.917 158.857 155.408C159.124 155.899 159.476 156.267 159.913 156.512C160.351 156.747 160.831 156.864 161.353 156.864Z" fill="white"/>
<path d="M168.516 147.808C168.238 147.808 168.004 147.712 167.812 147.52C167.62 147.328 167.524 147.093 167.524 146.816C167.524 146.539 167.62 146.304 167.812 146.112C168.004 145.92 168.238 145.824 168.516 145.824C168.782 145.824 169.006 145.92 169.188 146.112C169.38 146.304 169.476 146.539 169.476 146.816C169.476 147.093 169.38 147.328 169.188 147.52C169.006 147.712 168.782 147.808 168.516 147.808ZM169.22 149.232V158H167.764V149.232H169.22Z" fill="white"/>
<path d="M175.973 149.072C177.04 149.072 177.904 149.397 178.565 150.048C179.227 150.688 179.557 151.616 179.557 152.832V158H178.117V153.04C178.117 152.165 177.899 151.499 177.461 151.04C177.024 150.571 176.427 150.336 175.669 150.336C174.901 150.336 174.288 150.576 173.829 151.056C173.381 151.536 173.157 152.235 173.157 153.152V158H171.701V149.232H173.157V150.48C173.445 150.032 173.835 149.685 174.325 149.44C174.827 149.195 175.376 149.072 175.973 149.072Z" fill="white"/>
<defs>
<radialGradient id="paint0_radial_32_3994" cx="0" cy="0" r="1" gradientUnits="userSpaceOnUse" gradientTransform="translate(144.332) rotate(90) scale(214 308)">
<stop stop-color="#FF8000"/>
<stop offset="1" stop-color="#E34141"/>
</radialGradient>
</defs>
</svg>
