<svg width="308" height="215" viewBox="0 0 308 215" fill="none" xmlns="http://www.w3.org/2000/svg">
<path d="M0 20.2818C0 9.26115 8.934 0.327148 19.9547 0.327148H288.045C299.066 0.327148 308 9.26115 308 20.2818V194.372C308 205.393 299.066 214.327 288.045 214.327H19.9547C8.93401 214.327 0 205.393 0 194.372V20.2818Z" fill="url(#paint0_linear_32_4112)"/>
<g clip-path="url(#clip0_32_4112)">
<path d="M180.737 85.931L169.247 79.2952L153.505 91.0574L169.247 102.82L180.776 96.161C182.574 95.0689 183.647 93.1605 183.647 91.0577C183.647 88.9549 182.574 87.0466 180.737 85.931Z" fill="#FF9100"/>
<path d="M157.484 91.0578C157.467 91.08 143.566 108.953 143.554 108.968L125.445 123.23C124.331 122.115 123.654 120.603 123.654 118.931V63.0859C123.654 61.4144 124.331 59.9019 125.445 58.7876L143.554 73.1478C143.566 73.1622 157.467 91.0357 157.484 91.0578Z" fill="#25D9F8"/>
<path d="M157.485 91.0579L153.505 96.192V85.9236L157.485 91.0579Z" fill="#00C0F1"/>
<path d="M169.267 79.277L157.486 91.0579L125.447 58.7879C125.845 58.4295 126.243 58.1509 126.681 57.8723C128.591 56.7978 130.86 56.8375 132.731 57.9919L153.506 70.2027L169.267 79.277Z" fill="#7FE881"/>
<path d="M169.266 79.2769L157.485 91.0579L153.505 87.0779V70.2026L169.266 79.2769Z" fill="#5BC980"/>
<path d="M169.267 102.838L153.506 111.913L132.691 124.065C131.736 124.622 130.701 124.94 129.626 124.94C128.631 124.94 127.636 124.662 126.681 124.144C126.243 123.866 125.845 123.587 125.447 123.229L157.486 91.0574L169.267 102.838Z" fill="#FF637B"/>
<path d="M169.266 102.838L153.505 111.913V95.0374L157.485 91.0574L169.266 102.838Z" fill="#E63950"/>
</g>
<g clip-path="url(#clip1_32_4112)">
<path d="M285.875 18.0846L283.396 16.6533L280.001 19.1903L283.396 21.7272L285.883 20.291C286.271 20.0555 286.502 19.6439 286.502 19.1903C286.502 18.7368 286.271 18.3252 285.875 18.0846Z" fill="#FF9100"/>
<path d="M280.858 19.1897C280.854 19.1945 277.856 23.0496 277.854 23.0527L273.948 26.1287C273.707 25.8884 273.562 25.5622 273.562 25.2016V13.1566C273.562 12.7961 273.707 12.4698 273.948 12.2295L277.854 15.3268C277.856 15.3299 280.854 19.185 280.858 19.1897Z" fill="#25D9F8"/>
<path d="M280.859 19.1897L280.001 20.297V18.0823L280.859 19.1897Z" fill="#00C0F1"/>
<path d="M283.4 16.649L280.859 19.19L273.948 12.2298C274.034 12.1525 274.12 12.0924 274.214 12.0324C274.626 11.8006 275.116 11.8092 275.519 12.0581L280 14.6918L283.4 16.649Z" fill="#7FE881"/>
<path d="M283.4 16.6493L280.859 19.1903L280.001 18.3319V14.6921L283.4 16.6493Z" fill="#5BC980"/>
<path d="M283.4 21.7311L280 23.6884L275.511 26.3095C275.305 26.4296 275.081 26.4983 274.85 26.4983C274.635 26.4983 274.42 26.4382 274.214 26.3266C274.12 26.2665 274.034 26.2065 273.948 26.1292L280.859 19.1902L283.4 21.7311Z" fill="#FF637B"/>
<path d="M283.4 21.7311L280.001 23.6884V20.0486L280.859 19.1902L283.4 21.7311Z" fill="#E63950"/>
</g>
<path d="M103.929 160.479H110.212C110.212 160.59 110.215 160.747 110.222 160.948C110.244 161.476 110.255 161.833 110.255 162.019C110.255 164.319 109.616 166.106 108.338 167.378C107.06 168.651 105.258 169.287 102.933 169.287C101.633 169.287 100.474 169.09 99.4562 168.696C98.438 168.301 97.5463 167.706 96.7809 166.909C96.0299 166.12 95.4522 165.194 95.0479 164.129C94.6507 163.065 94.4521 161.926 94.4521 160.713C94.4521 159.478 94.6543 158.339 95.0587 157.297C95.4703 156.255 96.0768 155.336 96.8783 154.539C97.651 153.758 98.5572 153.162 99.597 152.753C100.637 152.344 101.749 152.139 102.933 152.139C104.182 152.139 105.298 152.374 106.28 152.842C107.269 153.311 108.15 154.03 108.923 154.997L107.038 156.46C106.504 155.82 105.901 155.343 105.229 155.031C104.558 154.718 103.807 154.562 102.976 154.562C101.258 154.562 99.8533 155.131 98.763 156.27C97.6799 157.401 97.1383 158.875 97.1383 160.691C97.1383 162.537 97.6799 164.036 98.763 165.19C99.8533 166.336 101.265 166.909 102.998 166.909C104.471 166.909 105.63 166.556 106.475 165.849C107.32 165.142 107.742 164.178 107.742 162.957V162.723H103.929V160.479Z" fill="#FFFBF7"/>
<path d="M120.848 163.594C120.848 162.611 120.541 161.781 119.927 161.104C119.313 160.419 118.562 160.077 117.674 160.077C116.793 160.077 116.042 160.419 115.421 161.104C114.808 161.781 114.501 162.611 114.501 163.594C114.501 164.576 114.808 165.41 115.421 166.094C116.042 166.772 116.793 167.11 117.674 167.11C118.555 167.11 119.303 166.772 119.916 166.094C120.537 165.41 120.848 164.576 120.848 163.594ZM112.02 163.571C112.02 162.797 112.161 162.068 112.443 161.383C112.732 160.691 113.143 160.077 113.678 159.541C114.205 159.013 114.811 158.607 115.497 158.324C116.183 158.041 116.902 157.9 117.653 157.9C118.425 157.9 119.151 158.041 119.83 158.324C120.516 158.607 121.129 159.024 121.671 159.574C122.213 160.118 122.624 160.732 122.906 161.417C123.187 162.101 123.328 162.82 123.328 163.571C123.328 164.353 123.187 165.086 122.906 165.771C122.631 166.455 122.227 167.062 121.693 167.59C121.129 168.149 120.505 168.569 119.819 168.852C119.133 169.142 118.411 169.287 117.653 169.287C116.909 169.287 116.194 169.142 115.508 168.852C114.822 168.569 114.212 168.156 113.678 167.613C113.136 167.062 112.724 166.444 112.443 165.759C112.161 165.075 112.02 164.345 112.02 163.571Z" fill="#FFFBF7"/>
<path d="M133.889 163.594C133.889 162.611 133.582 161.781 132.968 161.104C132.354 160.419 131.603 160.077 130.715 160.077C129.834 160.077 129.083 160.419 128.462 161.104C127.848 161.781 127.542 162.611 127.542 163.594C127.542 164.576 127.848 165.41 128.462 166.094C129.083 166.772 129.834 167.11 130.715 167.11C131.596 167.11 132.343 166.772 132.957 166.094C133.578 165.41 133.889 164.576 133.889 163.594ZM125.061 163.571C125.061 162.797 125.202 162.068 125.484 161.383C125.772 160.691 126.184 160.077 126.718 159.541C127.245 159.013 127.852 158.607 128.538 158.324C129.224 158.041 129.942 157.9 130.693 157.9C131.466 157.9 132.192 158.041 132.87 158.324C133.556 158.607 134.17 159.024 134.712 159.574C135.253 160.118 135.665 160.732 135.947 161.417C136.228 162.101 136.369 162.82 136.369 163.571C136.369 164.353 136.228 165.086 135.947 165.771C135.672 166.455 135.268 167.062 134.733 167.59C134.17 168.149 133.546 168.569 132.86 168.852C132.174 169.142 131.452 169.287 130.693 169.287C129.95 169.287 129.235 169.142 128.549 168.852C127.863 168.569 127.253 168.156 126.718 167.613C126.177 167.062 125.765 166.444 125.484 165.759C125.202 165.075 125.061 164.345 125.061 163.571Z" fill="#FFFBF7"/>
<path d="M146.236 163.527C146.236 162.432 145.987 161.58 145.489 160.97C144.998 160.36 144.308 160.054 143.42 160.054C142.532 160.054 141.832 160.371 141.319 161.003C140.813 161.629 140.561 162.499 140.561 163.616C140.561 164.74 140.806 165.607 141.297 166.217C141.788 166.827 142.481 167.133 143.377 167.133C144.222 167.133 144.908 166.801 145.435 166.139C145.969 165.477 146.236 164.606 146.236 163.527ZM148.522 168.193C148.522 170.262 148.121 171.717 147.319 172.558C146.518 173.407 145.168 173.831 143.268 173.831C141.853 173.831 140.723 173.522 139.878 172.905C139.033 172.294 138.604 171.479 138.589 170.46L141.113 170.448C141.149 170.902 141.355 171.248 141.73 171.487C142.106 171.725 142.633 171.844 143.312 171.844C144.315 171.844 145.038 171.617 145.478 171.163C145.918 170.709 146.142 169.95 146.15 168.885L146.171 167.479C145.752 168.089 145.261 168.543 144.698 168.841C144.142 169.138 143.503 169.287 142.781 169.287C141.33 169.287 140.185 168.777 139.348 167.758C138.517 166.731 138.102 165.328 138.102 163.549C138.102 161.859 138.528 160.497 139.38 159.463C140.232 158.421 141.344 157.9 142.716 157.9C143.554 157.9 144.269 158.082 144.861 158.447C145.46 158.804 145.897 159.321 146.171 159.999V158.268H148.522V168.193Z" fill="#FFFBF7"/>
<path d="M151.879 168.852V151.547H154.23V168.852H151.879Z" fill="#FFFBF7"/>
<path d="M167.487 163.917H159.277C159.335 164.907 159.62 165.681 160.133 166.239C160.645 166.79 161.328 167.066 162.18 167.066C162.938 167.066 163.57 166.902 164.075 166.574C164.581 166.247 165.021 165.718 165.397 164.989L167.379 166.128C166.801 167.192 166.086 167.985 165.234 168.506C164.382 169.027 163.382 169.287 162.234 169.287C160.588 169.287 159.277 168.77 158.302 167.735C157.327 166.701 156.84 165.32 156.84 163.594C156.84 161.934 157.342 160.572 158.346 159.507C159.356 158.436 160.653 157.9 162.234 157.9C163.887 157.9 165.176 158.387 166.101 159.362C167.025 160.337 167.487 161.703 167.487 163.46V163.917ZM165.05 162.287C164.956 161.528 164.675 160.951 164.205 160.557C163.736 160.155 163.093 159.954 162.277 159.954C161.505 159.954 160.884 160.148 160.414 160.535C159.945 160.922 159.616 161.506 159.429 162.287H165.05Z" fill="#FFFBF7"/>
<path d="M179.412 159.34H180.073C181.503 159.34 182.456 159.18 182.932 158.86C183.409 158.54 183.647 157.974 183.647 157.163C183.647 156.292 183.391 155.678 182.878 155.321C182.373 154.964 181.438 154.785 180.073 154.785H179.412V159.34ZM179.25 161.517V168.852H176.834V152.507H180.734C181.889 152.507 182.737 152.574 183.279 152.708C183.828 152.835 184.304 153.047 184.709 153.345C185.207 153.724 185.597 154.238 185.878 154.885C186.16 155.526 186.301 156.233 186.301 157.007C186.301 157.781 186.16 158.495 185.878 159.15C185.597 159.805 185.207 160.319 184.709 160.691C184.304 160.989 183.828 161.201 183.279 161.327C182.737 161.454 181.889 161.517 180.734 161.517H179.25Z" fill="#FFFBF7"/>
<path d="M188.554 168.852V151.547H190.904V168.852H188.554Z" fill="#FFFBF7"/>
<path d="M203.934 168.852H201.584V167.479C201.165 168.089 200.674 168.543 200.111 168.841C199.555 169.138 198.916 169.287 198.194 169.287C196.742 169.287 195.598 168.777 194.76 167.758C193.93 166.731 193.514 165.328 193.514 163.549C193.514 161.859 193.94 160.497 194.793 159.463C195.645 158.421 196.757 157.9 198.129 157.9C198.966 157.9 199.681 158.082 200.273 158.447C200.872 158.804 201.309 159.321 201.584 159.999V158.268H203.934V168.852ZM201.649 163.527C201.649 162.432 201.4 161.58 200.901 160.97C200.41 160.36 199.721 160.054 198.833 160.054C197.944 160.054 197.244 160.371 196.731 161.003C196.226 161.629 195.973 162.499 195.973 163.616C195.973 164.74 196.219 165.607 196.71 166.217C197.201 166.827 197.894 167.133 198.789 167.133C199.634 167.133 200.32 166.801 200.847 166.139C201.382 165.477 201.649 164.606 201.649 163.527Z" fill="#FFFBF7"/>
<path d="M208.949 173.831H206.534L209.35 167.936L205.58 158.268H208.18L210.065 163.75C210.173 164.085 210.267 164.427 210.346 164.777C210.433 165.119 210.501 165.469 210.552 165.826C210.646 165.454 210.87 164.863 211.224 164.051L211.278 163.917L213.812 158.268H216.358L208.949 173.831Z" fill="#FFFBF7"/>
<defs>
<linearGradient id="paint0_linear_32_4112" x1="182.519" y1="-51.5516" x2="319.144" y2="236.023" gradientUnits="userSpaceOnUse">
<stop offset="0.104167" stop-color="#99FDD9"/>
<stop offset="1" stop-color="#1E62A2"/>
</linearGradient>
<clipPath id="clip0_32_4112">
<rect width="67.8458" height="67.8458" fill="white" transform="translate(119.728 57.0952)"/>
</clipPath>
<clipPath id="clip1_32_4112">
<rect width="14.6334" height="14.6334" fill="white" transform="translate(272.714 11.8647)"/>
</clipPath>
</defs>
</svg>
