<svg width="309" height="214" viewBox="0 0 309 214" fill="none" xmlns="http://www.w3.org/2000/svg">
<path d="M0.0761719 19.9547C0.0761719 8.934 9.01017 0 20.0308 0H288.121C299.142 0 308.076 8.934 308.076 19.9547V194.045C308.076 205.066 299.142 214 288.121 214H20.0308C9.01018 214 0.0761719 205.066 0.0761719 194.045V19.9547Z" fill="url(#paint0_linear_32_4089)"/>
<g clip-path="url(#clip0_32_4089)">
<path d="M128.321 80.109C122.023 90.843 126.027 107.132 132.992 117.009C136.468 121.947 139.988 126.38 144.809 126.38C144.9 126.38 144.991 126.378 145.084 126.374C147.349 126.286 148.986 125.601 150.568 124.939C152.345 124.195 154.183 123.426 157.065 123.426C159.807 123.426 161.557 124.17 163.249 124.889C164.917 125.598 166.634 126.331 169.173 126.284C174.603 126.185 177.937 121.402 180.879 117.183C183.948 112.777 185.488 108.499 186.007 106.865L186.028 106.8C186.127 106.509 185.988 106.192 185.704 106.064C185.696 106.061 185.667 106.049 185.659 106.046C184.703 105.662 176.315 102.007 176.227 92.0455C176.145 83.9525 182.519 79.6669 183.798 78.8901L183.857 78.8536C183.996 78.7661 184.092 78.6272 184.125 78.4684C184.158 78.3098 184.124 78.1447 184.031 78.0114C179.631 71.6873 172.887 70.7342 170.172 70.6196C169.778 70.581 169.371 70.5615 168.963 70.5615C165.774 70.5615 162.719 71.7444 160.265 72.6949C158.571 73.351 157.107 73.9176 156.098 73.9176C154.964 73.9176 153.492 73.344 151.788 72.68C149.509 71.7917 146.926 70.7851 144.192 70.7851C144.127 70.7851 144.062 70.7858 143.999 70.787C137.641 70.8789 131.634 74.4514 128.321 80.109Z" fill="#FEFAF6"/>
<path d="M170.176 53.2129C166.326 53.3669 161.707 55.6945 158.946 58.8702C156.6 61.5395 154.309 65.99 154.912 70.476C154.95 70.7566 155.183 70.9733 155.47 70.9951C155.73 71.015 155.995 71.0251 156.26 71.0253C160.024 71.0253 164.086 68.9798 166.859 65.686C169.778 62.2081 171.254 57.7447 170.808 53.7466C170.772 53.4333 170.492 53.2006 170.176 53.2129Z" fill="#FEFAF6"/>
</g>
<g clip-path="url(#clip1_32_4089)">
<path d="M281.117 16.3741C279.992 18.1305 280.707 20.7961 281.951 22.4123C282.571 23.2203 283.2 23.9456 284.061 23.9456C284.077 23.9456 284.093 23.9454 284.11 23.9448C284.514 23.9302 284.807 23.8182 285.089 23.7099C285.407 23.5882 285.735 23.4624 286.249 23.4624C286.739 23.4624 287.052 23.5841 287.354 23.7018C287.652 23.8177 287.958 23.9377 288.412 23.93C289.381 23.9138 289.977 23.1311 290.502 22.4407C291.05 21.7198 291.325 21.0198 291.418 20.7523L291.422 20.7417C291.439 20.6941 291.414 20.6422 291.364 20.6213C291.362 20.6207 291.357 20.6188 291.356 20.6183C291.185 20.5554 289.687 19.9574 289.671 18.3273C289.657 17.003 290.795 16.3017 291.023 16.1746L291.034 16.1687C291.059 16.1543 291.076 16.1316 291.082 16.1056C291.087 16.0797 291.081 16.0527 291.065 16.0308C290.279 14.996 289.075 14.84 288.59 14.8213C288.52 14.8149 288.447 14.8118 288.374 14.8118C287.805 14.8118 287.259 15.0053 286.821 15.1609C286.518 15.2682 286.257 15.3609 286.077 15.3609C285.874 15.3609 285.611 15.2671 285.307 15.1584C284.9 15.0131 284.439 14.8484 283.951 14.8484C283.939 14.8484 283.928 14.8485 283.916 14.8487C282.781 14.8637 281.708 15.4483 281.117 16.3741Z" fill="#FEFAF6"/>
<path d="M288.592 11.973C287.904 11.9982 287.079 12.3791 286.586 12.8987C286.168 13.3355 285.758 14.0638 285.866 14.7978C285.873 14.8438 285.914 14.8792 285.966 14.8828C286.012 14.8861 286.06 14.8877 286.107 14.8877C286.779 14.8877 287.504 14.553 287.999 14.014C288.521 13.4449 288.784 12.7145 288.705 12.0603C288.698 12.0091 288.648 11.971 288.592 11.973Z" fill="#FEFAF6"/>
</g>
<path d="M63.5946 160.329H57.124L55.932 163.629H53.8887L59.2525 148.878H61.4874L66.8299 163.629H64.7866L63.5946 160.329ZM63.0412 158.754L60.3593 151.262L57.6774 158.754H63.0412Z" fill="white"/>
<path d="M71.1045 154.114C71.4877 153.447 72.0553 152.894 72.8073 152.454C73.5736 152 74.4605 151.773 75.468 151.773C76.5038 151.773 77.4404 152.021 78.2776 152.518C79.129 153.014 79.7959 153.717 80.2784 154.625C80.7608 155.519 81.0021 156.562 81.0021 157.754C81.0021 158.932 80.7608 159.982 80.2784 160.904C79.7959 161.826 79.129 162.543 78.2776 163.054C77.4404 163.565 76.5038 163.82 75.468 163.82C74.4747 163.82 73.5949 163.6 72.8286 163.16C72.0766 162.706 71.5019 162.146 71.1045 161.479V169.163H69.1676V151.964H71.1045V154.114ZM79.0226 157.754C79.0226 156.874 78.8452 156.108 78.4904 155.455C78.1357 154.802 77.6532 154.306 77.0431 153.965C76.4471 153.625 75.7872 153.454 75.0635 153.454C74.3541 153.454 73.6942 153.632 73.084 153.986C72.4881 154.327 72.0056 154.831 71.6367 155.498C71.2819 156.15 71.1045 156.91 71.1045 157.775C71.1045 158.655 71.2819 159.428 71.6367 160.095C72.0056 160.748 72.4881 161.252 73.084 161.606C73.6942 161.947 74.3541 162.117 75.0635 162.117C75.7872 162.117 76.4471 161.947 77.0431 161.606C77.6532 161.252 78.1357 160.748 78.4904 160.095C78.8452 159.428 79.0226 158.648 79.0226 157.754Z" fill="white"/>
<path d="M85.4885 154.114C85.8717 153.447 86.4393 152.894 87.1913 152.454C87.9576 152 88.8445 151.773 89.8519 151.773C90.8878 151.773 91.8243 152.021 92.6616 152.518C93.513 153.014 94.1799 153.717 94.6623 154.625C95.1448 155.519 95.386 156.562 95.386 157.754C95.386 158.932 95.1448 159.982 94.6623 160.904C94.1799 161.826 93.513 162.543 92.6616 163.054C91.8243 163.565 90.8878 163.82 89.8519 163.82C88.8586 163.82 87.9789 163.6 87.2126 163.16C86.4605 162.706 85.8858 162.146 85.4885 161.479V169.163H83.5516V151.964H85.4885V154.114ZM93.4065 157.754C93.4065 156.874 93.2292 156.108 92.8744 155.455C92.5197 154.802 92.0372 154.306 91.427 153.965C90.8311 153.625 90.1712 153.454 89.4475 153.454C88.738 153.454 88.0782 153.632 87.468 153.986C86.872 154.327 86.3896 154.831 86.0206 155.498C85.6659 156.15 85.4885 156.91 85.4885 157.775C85.4885 158.655 85.6659 159.428 86.0206 160.095C86.3896 160.748 86.872 161.252 87.468 161.606C88.0782 161.947 88.738 162.117 89.4475 162.117C90.1712 162.117 90.8311 161.947 91.427 161.606C92.0372 161.252 92.5197 160.748 92.8744 160.095C93.2292 159.428 93.4065 158.648 93.4065 157.754Z" fill="white"/>
<path d="M108.314 163.778C107.335 163.778 106.455 163.607 105.675 163.267C104.909 162.912 104.305 162.429 103.866 161.819C103.426 161.195 103.199 160.478 103.184 159.67H105.249C105.32 160.365 105.604 160.954 106.101 161.436C106.611 161.904 107.349 162.139 108.314 162.139C109.237 162.139 109.96 161.912 110.485 161.457C111.024 160.989 111.294 160.393 111.294 159.67C111.294 159.102 111.138 158.641 110.826 158.286C110.514 157.931 110.123 157.662 109.655 157.477C109.187 157.293 108.555 157.094 107.761 156.881C106.782 156.626 105.994 156.37 105.398 156.115C104.816 155.86 104.313 155.462 103.887 154.923C103.475 154.37 103.27 153.632 103.27 152.709C103.27 151.901 103.475 151.184 103.887 150.56C104.298 149.935 104.873 149.453 105.611 149.112C106.363 148.772 107.222 148.601 108.186 148.601C109.577 148.601 110.712 148.949 111.592 149.644C112.486 150.34 112.99 151.262 113.103 152.411H110.975C110.904 151.844 110.606 151.347 110.081 150.921C109.556 150.482 108.86 150.262 107.995 150.262C107.186 150.262 106.526 150.474 106.015 150.9C105.505 151.312 105.249 151.893 105.249 152.645C105.249 153.185 105.398 153.625 105.696 153.965C106.008 154.306 106.384 154.568 106.824 154.753C107.278 154.923 107.91 155.122 108.719 155.349C109.698 155.618 110.485 155.888 111.081 156.157C111.677 156.413 112.188 156.817 112.614 157.371C113.039 157.91 113.252 158.648 113.252 159.584C113.252 160.308 113.061 160.989 112.678 161.628C112.294 162.266 111.727 162.784 110.975 163.182C110.223 163.579 109.336 163.778 108.314 163.778Z" fill="white"/>
<path d="M118.465 153.561V160.436C118.465 161.003 118.586 161.408 118.827 161.649C119.068 161.876 119.487 161.99 120.083 161.99H121.509V163.629H119.764C118.685 163.629 117.876 163.38 117.337 162.884C116.798 162.387 116.528 161.571 116.528 160.436V153.561H115.017V151.964H116.528V149.027H118.465V151.964H121.509V153.561H118.465Z" fill="white"/>
<path d="M128.943 163.82C127.85 163.82 126.857 163.572 125.963 163.075C125.083 162.578 124.388 161.876 123.877 160.968C123.38 160.046 123.132 158.981 123.132 157.775C123.132 156.583 123.388 155.533 123.898 154.625C124.423 153.703 125.133 153 126.027 152.518C126.921 152.021 127.921 151.773 129.028 151.773C130.135 151.773 131.135 152.021 132.029 152.518C132.923 153 133.626 153.696 134.136 154.604C134.662 155.512 134.924 156.569 134.924 157.775C134.924 158.981 134.654 160.046 134.115 160.968C133.59 161.876 132.874 162.578 131.965 163.075C131.057 163.572 130.05 163.82 128.943 163.82ZM128.943 162.117C129.638 162.117 130.291 161.954 130.901 161.628C131.511 161.301 132.001 160.812 132.37 160.159C132.753 159.506 132.945 158.712 132.945 157.775C132.945 156.839 132.76 156.044 132.391 155.391C132.022 154.739 131.54 154.256 130.944 153.944C130.348 153.617 129.702 153.454 129.007 153.454C128.297 153.454 127.645 153.617 127.049 153.944C126.467 154.256 125.999 154.739 125.644 155.391C125.289 156.044 125.112 156.839 125.112 157.775C125.112 158.726 125.282 159.528 125.622 160.18C125.977 160.833 126.446 161.323 127.027 161.649C127.609 161.961 128.248 162.117 128.943 162.117Z" fill="white"/>
<path d="M139.408 153.859C139.748 153.192 140.231 152.674 140.855 152.305C141.494 151.936 142.267 151.752 143.175 151.752V153.752H142.664C140.493 153.752 139.408 154.93 139.408 157.286V163.629H137.471V151.964H139.408V153.859Z" fill="white"/>
<path d="M156.053 157.349C156.053 157.718 156.032 158.109 155.99 158.52H146.667C146.738 159.67 147.128 160.571 147.837 161.223C148.561 161.862 149.434 162.181 150.456 162.181C151.293 162.181 151.988 161.99 152.541 161.606C153.109 161.209 153.506 160.684 153.733 160.031H155.819C155.507 161.152 154.883 162.068 153.946 162.777C153.01 163.472 151.846 163.82 150.456 163.82C149.349 163.82 148.355 163.572 147.476 163.075C146.61 162.578 145.929 161.876 145.432 160.968C144.936 160.046 144.687 158.981 144.687 157.775C144.687 156.569 144.929 155.512 145.411 154.604C145.893 153.696 146.567 153 147.433 152.518C148.313 152.021 149.32 151.773 150.456 151.773C151.562 151.773 152.541 152.014 153.393 152.496C154.244 152.979 154.897 153.646 155.351 154.497C155.819 155.334 156.053 156.285 156.053 157.349ZM154.053 156.945C154.053 156.207 153.89 155.576 153.563 155.051C153.237 154.511 152.79 154.107 152.222 153.837C151.669 153.554 151.052 153.412 150.37 153.412C149.391 153.412 148.554 153.724 147.859 154.348C147.178 154.973 146.787 155.838 146.688 156.945H154.053Z" fill="white"/>
<path d="M175.672 163.629L173.735 161.67C173.012 162.422 172.238 162.983 171.415 163.352C170.592 163.707 169.663 163.884 168.627 163.884C167.605 163.884 166.697 163.699 165.902 163.331C165.122 162.962 164.512 162.437 164.072 161.755C163.646 161.074 163.433 160.28 163.433 159.372C163.433 158.336 163.724 157.428 164.306 156.647C164.902 155.852 165.775 155.228 166.924 154.774C166.47 154.235 166.144 153.738 165.945 153.284C165.746 152.83 165.647 152.333 165.647 151.794C165.647 151.17 165.803 150.609 166.115 150.113C166.442 149.602 166.903 149.204 167.499 148.921C168.095 148.637 168.783 148.495 169.563 148.495C170.33 148.495 170.997 148.644 171.564 148.942C172.132 149.24 172.558 149.658 172.841 150.198C173.125 150.723 173.253 151.312 173.224 151.964H171.288C171.302 151.383 171.139 150.928 170.798 150.602C170.457 150.262 170.018 150.091 169.478 150.091C168.911 150.091 168.45 150.254 168.095 150.581C167.754 150.893 167.584 151.297 167.584 151.794C167.584 152.22 167.697 152.631 167.925 153.029C168.166 153.426 168.563 153.915 169.116 154.497L173.544 158.946L173.927 158.35L175.374 155.923H177.46L175.715 158.946C175.474 159.372 175.19 159.819 174.863 160.287L178.205 163.629H175.672ZM168.627 162.224C169.393 162.224 170.081 162.075 170.692 161.777C171.316 161.479 171.905 161.018 172.458 160.393L168.095 156.009C166.278 156.704 165.37 157.804 165.37 159.308C165.37 160.145 165.668 160.84 166.264 161.394C166.874 161.947 167.662 162.224 168.627 162.224Z" fill="white"/>
<path d="M186.695 150.07C186.326 150.07 186.014 149.942 185.758 149.687C185.503 149.431 185.375 149.119 185.375 148.75C185.375 148.381 185.503 148.069 185.758 147.814C186.014 147.558 186.326 147.431 186.695 147.431C187.05 147.431 187.348 147.558 187.589 147.814C187.844 148.069 187.972 148.381 187.972 148.75C187.972 149.119 187.844 149.431 187.589 149.687C187.348 149.942 187.05 150.07 186.695 150.07ZM187.631 151.964V163.629H185.694V151.964H187.631Z" fill="white"/>
<path d="M200.064 148.793V150.368H196.02V163.629H194.083V150.368H190.017V148.793H200.064Z" fill="white"/>
<path d="M212.793 151.964V163.629H210.856V161.904C210.487 162.5 209.969 162.969 209.302 163.309C208.649 163.636 207.925 163.799 207.131 163.799C206.223 163.799 205.407 163.614 204.683 163.245C203.959 162.862 203.385 162.295 202.959 161.543C202.547 160.791 202.342 159.875 202.342 158.797V151.964H204.257V158.541C204.257 159.691 204.548 160.578 205.13 161.202C205.712 161.812 206.506 162.117 207.514 162.117C208.55 162.117 209.366 161.798 209.962 161.159C210.558 160.521 210.856 159.591 210.856 158.371V151.964H212.793Z" fill="white"/>
<path d="M221.746 151.752C223.165 151.752 224.314 152.184 225.194 153.05C226.074 153.901 226.514 155.136 226.514 156.753V163.629H224.598V157.03C224.598 155.867 224.307 154.98 223.726 154.37C223.144 153.745 222.349 153.433 221.342 153.433C220.32 153.433 219.504 153.752 218.894 154.391C218.298 155.029 218 155.959 218 157.179V163.629H216.063V151.964H218V153.625C218.383 153.029 218.901 152.567 219.554 152.241C220.221 151.915 220.951 151.752 221.746 151.752Z" fill="white"/>
<path d="M240.32 157.349C240.32 157.718 240.299 158.109 240.256 158.52H230.934C231.005 159.67 231.395 160.571 232.104 161.223C232.828 161.862 233.701 162.181 234.722 162.181C235.56 162.181 236.255 161.99 236.808 161.606C237.376 161.209 237.773 160.684 238 160.031H240.086C239.774 161.152 239.15 162.068 238.213 162.777C237.277 163.472 236.113 163.82 234.722 163.82C233.616 163.82 232.622 163.572 231.742 163.075C230.877 162.578 230.196 161.876 229.699 160.968C229.202 160.046 228.954 158.981 228.954 157.775C228.954 156.569 229.195 155.512 229.678 154.604C230.16 153.696 230.834 153 231.7 152.518C232.58 152.021 233.587 151.773 234.722 151.773C235.829 151.773 236.808 152.014 237.66 152.496C238.511 152.979 239.164 153.646 239.618 154.497C240.086 155.334 240.32 156.285 240.32 157.349ZM238.32 156.945C238.32 156.207 238.156 155.576 237.83 155.051C237.504 154.511 237.057 154.107 236.489 153.837C235.936 153.554 235.318 153.412 234.637 153.412C233.658 153.412 232.821 153.724 232.126 154.348C231.445 154.973 231.054 155.838 230.955 156.945H238.32Z" fill="white"/>
<path d="M247.006 163.82C246.112 163.82 245.311 163.671 244.601 163.373C243.892 163.061 243.331 162.635 242.92 162.096C242.508 161.543 242.281 160.911 242.238 160.202H244.239C244.296 160.783 244.566 161.259 245.048 161.628C245.545 161.997 246.19 162.181 246.985 162.181C247.723 162.181 248.305 162.018 248.73 161.692C249.156 161.365 249.369 160.954 249.369 160.457C249.369 159.946 249.142 159.57 248.688 159.329C248.234 159.074 247.531 158.825 246.581 158.584C245.715 158.357 245.006 158.13 244.452 157.903C243.913 157.662 243.445 157.314 243.047 156.86C242.664 156.392 242.473 155.781 242.473 155.029C242.473 154.433 242.65 153.887 243.005 153.39C243.359 152.894 243.863 152.504 244.516 152.22C245.169 151.922 245.914 151.773 246.751 151.773C248.042 151.773 249.085 152.099 249.88 152.752C250.674 153.405 251.1 154.299 251.157 155.434H249.22C249.177 154.824 248.929 154.334 248.475 153.965C248.035 153.596 247.439 153.412 246.687 153.412C245.992 153.412 245.438 153.561 245.027 153.859C244.615 154.157 244.41 154.547 244.41 155.029C244.41 155.413 244.53 155.732 244.771 155.987C245.027 156.228 245.339 156.427 245.708 156.583C246.091 156.725 246.616 156.888 247.283 157.073C248.12 157.3 248.801 157.527 249.326 157.754C249.851 157.967 250.298 158.293 250.667 158.733C251.05 159.173 251.249 159.748 251.263 160.457C251.263 161.096 251.086 161.67 250.731 162.181C250.376 162.692 249.873 163.096 249.22 163.394C248.581 163.678 247.844 163.82 247.006 163.82Z" fill="white"/>
<defs>
<linearGradient id="paint0_linear_32_4089" x1="182.595" y1="-51.8788" x2="319.22" y2="235.696" gradientUnits="userSpaceOnUse">
<stop stop-color="#00E0FF"/>
<stop offset="1" stop-color="#0047FF"/>
</linearGradient>
<clipPath id="clip0_32_4089">
<rect width="74.4974" height="73.1671" fill="white" transform="translate(118.372 53.2124)"/>
</clipPath>
<clipPath id="clip1_32_4089">
<rect width="13.3031" height="11.9728" fill="white" transform="translate(279.34 11.9729)"/>
</clipPath>
</defs>
</svg>
