<svg width="309" height="215" viewBox="0 0 309 215" fill="none" xmlns="http://www.w3.org/2000/svg">
<path d="M0.0761719 20.2818C0.0761719 9.26115 9.01017 0.327148 20.0308 0.327148H288.122C299.142 0.327148 308.076 9.26115 308.076 20.2818V194.372C308.076 205.393 299.142 214.327 288.122 214.327H20.0308C9.01018 214.327 0.0761719 205.393 0.0761719 194.372V20.2818Z" fill="url(#paint0_linear_32_4133)"/>
<path d="M125.704 159.524C125.704 162.006 125.088 163.958 123.854 165.379C122.627 166.8 120.918 167.511 118.728 167.511C116.489 167.511 114.76 166.815 113.54 165.421C112.327 164.021 111.721 162.048 111.721 159.503C111.721 156.978 112.331 155.023 113.551 153.637C114.77 152.244 116.503 151.547 118.749 151.547C120.932 151.547 122.637 152.255 123.864 153.669C125.091 155.083 125.704 157.035 125.704 159.524ZM113.592 159.524C113.592 161.624 114.029 163.219 114.902 164.308C115.782 165.39 117.058 165.931 118.728 165.931C120.412 165.931 121.684 165.39 122.544 164.308C123.403 163.226 123.833 161.631 123.833 159.524C123.833 157.438 123.403 155.857 122.544 154.783C121.691 153.701 120.426 153.16 118.749 153.16C117.065 153.16 115.782 153.704 114.902 154.793C114.029 155.875 113.592 157.452 113.592 159.524Z" fill="white"/>
<path d="M135.114 167.299H133.346V153.393H128.532V151.791H139.927V153.393H135.114V167.299Z" fill="white"/>
<path d="M155.096 167.299H153.329V160.001H145.323V167.299H143.556V151.791H145.323V158.389H153.329V151.791H155.096V167.299Z" fill="white"/>
<path d="M169.08 167.299H160.607V151.791H169.08V153.393H162.374V158.389H168.675V159.98H162.374V165.687H169.08V167.299Z" fill="white"/>
<path d="M175.557 160.85V167.299H173.79V151.791H177.959C179.824 151.791 181.199 152.156 182.087 152.884C182.981 153.612 183.428 154.708 183.428 156.172C183.428 158.223 182.409 159.609 180.371 160.33L184.499 167.299H182.409L178.728 160.85H175.557ZM175.557 159.301H177.98C179.227 159.301 180.142 159.05 180.725 158.548C181.307 158.039 181.598 157.279 181.598 156.268C181.598 155.242 181.3 154.503 180.704 154.051C180.115 153.598 179.165 153.372 177.855 153.372H175.557V159.301Z" fill="white"/>
<path d="M196.861 163.173C196.861 164.538 196.375 165.602 195.405 166.366C194.435 167.129 193.118 167.511 191.454 167.511C189.652 167.511 188.266 167.274 187.295 166.8V165.061C187.919 165.33 188.599 165.542 189.333 165.697C190.068 165.853 190.796 165.931 191.517 165.931C192.695 165.931 193.582 165.704 194.178 165.252C194.774 164.792 195.072 164.156 195.072 163.342C195.072 162.805 194.965 162.367 194.75 162.027C194.542 161.681 194.189 161.362 193.69 161.073C193.197 160.783 192.445 160.454 191.433 160.086C190.019 159.57 189.007 158.958 188.398 158.251C187.795 157.544 187.493 156.621 187.493 155.483C187.493 154.288 187.933 153.336 188.813 152.629C189.694 151.922 190.858 151.569 192.307 151.569C193.818 151.569 195.207 151.851 196.476 152.417L195.925 153.987C194.67 153.45 193.45 153.181 192.265 153.181C191.329 153.181 190.598 153.386 190.071 153.796C189.545 154.206 189.281 154.775 189.281 155.504C189.281 156.041 189.378 156.483 189.572 156.83C189.766 157.169 190.092 157.484 190.55 157.774C191.014 158.057 191.721 158.371 192.671 158.718C194.265 159.298 195.36 159.92 195.956 160.585C196.559 161.249 196.861 162.112 196.861 163.173Z" fill="white"/>
<path d="M194.682 80.7023C195.644 80.7023 196.423 79.9234 196.423 78.9619L196.424 70.8433C196.424 69.1948 195.088 67.858 193.439 67.858L116.97 67.8523C115.321 67.8523 113.985 69.1891 113.984 70.8376V78.9556C113.984 79.9171 114.763 80.6967 115.724 80.6973C116.687 80.6973 117.466 81.4768 117.466 82.4384L117.464 98.4375C117.464 99.399 116.685 100.179 115.723 100.179C114.762 100.179 113.982 100.958 113.982 101.92L113.981 110.038C113.981 111.687 115.318 113.023 116.967 113.024L193.436 113.029C195.085 113.029 196.421 111.692 196.421 110.044L196.422 101.925C196.422 100.964 195.642 100.184 194.681 100.184C193.719 100.184 192.94 99.4047 192.94 98.4425L192.941 82.4434C192.941 81.4819 193.721 80.7023 194.682 80.7023Z" fill="url(#paint1_linear_32_4133)"/>
<path d="M113.982 102.487L113.981 110.039C113.981 111.687 115.318 113.023 116.966 113.024L193.435 113.029C195.085 113.029 196.421 111.693 196.421 110.044L196.421 102.488H113.982V102.487Z" fill="url(#paint2_linear_32_4133)"/>
<path d="M117.334 90.947L122.815 96.4284V90.947H117.334Z" fill="url(#paint3_linear_32_4133)"/>
<path d="M139.608 68.0198L145.543 73.9546H139.608V68.0198Z" fill="url(#paint4_linear_32_4133)"/>
<path d="M188.029 107.507H123.118C122.037 107.507 121.16 106.631 121.16 105.549V75.3345C121.16 74.2527 122.037 73.3762 123.118 73.3762H188.029C189.11 73.3762 189.986 74.2527 189.986 75.3345V105.549C189.986 106.63 189.11 107.507 188.029 107.507Z" fill="url(#paint5_linear_32_4133)"/>
<path d="M148.231 78.629C147.113 77.374 145.254 76.8891 143.596 77.6297C141.974 78.3551 140.416 79.3027 138.99 80.0949C138.128 80.5741 137.422 81.0577 136.791 81.5394C136.109 81.2239 135.35 81.047 134.55 81.047C133.709 81.047 132.915 81.2409 132.207 81.586C131.585 81.1219 130.886 80.6572 130.041 80.1975C128.608 79.4186 127.041 78.4854 125.413 77.7757C123.139 76.7846 120.508 78.0824 119.918 80.4916C119.495 82.2201 121.417 83.9309 121.399 85.65C121.399 85.65 119.474 89.5364 119.97 91.4815C120.175 92.2856 120.608 92.9619 121.178 93.4694L137.329 109.62C137.432 109.737 137.543 109.847 137.658 109.95C137.98 110.314 138.364 110.613 138.788 110.836C138.852 110.871 138.918 110.903 138.984 110.933C138.986 110.934 138.989 110.936 138.992 110.936C139.055 110.966 139.119 110.994 139.185 111.019C139.19 111.021 139.195 111.023 139.2 111.025C139.262 111.05 139.325 111.073 139.389 111.094C139.397 111.097 139.405 111.099 139.413 111.102C139.473 111.122 139.535 111.14 139.597 111.158C139.607 111.16 139.618 111.164 139.629 111.166C139.688 111.183 139.748 111.197 139.808 111.21C139.821 111.213 139.834 111.216 139.847 111.219C139.905 111.231 139.963 111.242 140.021 111.251C140.037 111.254 140.053 111.256 140.068 111.259C140.124 111.268 140.18 111.274 140.237 111.281C140.255 111.283 140.273 111.285 140.291 111.286C140.345 111.292 140.4 111.295 140.454 111.298C140.474 111.3 140.495 111.301 140.515 111.302C140.568 111.304 140.62 111.305 140.673 111.305C140.695 111.305 140.717 111.305 140.74 111.304C140.791 111.303 140.842 111.301 140.892 111.298C140.916 111.297 140.941 111.296 140.966 111.294C141.015 111.29 141.063 111.285 141.112 111.28C141.139 111.276 141.165 111.274 141.19 111.271C141.238 111.264 141.286 111.256 141.333 111.248C141.361 111.244 141.388 111.24 141.415 111.234C141.462 111.225 141.508 111.215 141.556 111.204C141.583 111.198 141.611 111.192 141.639 111.185C141.686 111.173 141.733 111.159 141.779 111.145C141.806 111.138 141.834 111.131 141.861 111.122C141.911 111.106 141.961 111.088 142.01 111.07C142.034 111.062 142.058 111.055 142.081 111.046C142.154 111.018 142.227 110.988 142.3 110.956C143.313 110.503 144.302 109.963 145.249 109.428C145.438 109.321 145.627 109.214 145.812 109.108C146.184 108.897 146.549 108.689 146.905 108.491C147.407 108.212 147.856 107.931 148.269 107.651C148.289 107.637 148.308 107.624 148.328 107.61C149.189 108.204 150.234 108.553 151.36 108.553C152.521 108.553 153.595 108.181 154.472 107.553C154.89 107.833 155.346 108.112 155.855 108.388C156.034 108.486 156.215 108.586 156.399 108.688C157.498 109.296 158.667 109.965 159.875 110.534C160.077 110.629 160.279 110.722 160.483 110.81C160.556 110.842 160.629 110.871 160.702 110.898C160.725 110.907 160.748 110.914 160.772 110.922C160.774 110.922 160.776 110.923 160.777 110.924C160.801 110.932 160.823 110.939 160.847 110.947C160.873 110.955 160.898 110.965 160.923 110.972C160.95 110.98 160.977 110.987 161.003 110.995C161.049 111.007 161.095 111.021 161.141 111.032C161.145 111.033 161.148 111.034 161.153 111.035C161.178 111.041 161.203 111.045 161.228 111.051C161.276 111.062 161.323 111.072 161.37 111.081C161.396 111.086 161.421 111.089 161.447 111.093C161.468 111.096 161.489 111.1 161.51 111.103C161.539 111.107 161.567 111.111 161.595 111.115C161.621 111.118 161.646 111.12 161.672 111.123C161.718 111.127 161.763 111.132 161.808 111.135C161.815 111.136 161.822 111.137 161.83 111.137C161.851 111.138 161.872 111.138 161.893 111.139C161.944 111.142 161.995 111.143 162.046 111.144C162.068 111.144 162.09 111.144 162.113 111.143H162.12C162.138 111.143 162.155 111.143 162.172 111.143C162.205 111.142 162.238 111.141 162.27 111.14C162.291 111.138 162.311 111.137 162.332 111.136C162.378 111.133 162.424 111.13 162.471 111.125C162.481 111.124 162.491 111.123 162.502 111.121C162.517 111.12 162.533 111.118 162.548 111.116C162.605 111.109 162.661 111.102 162.717 111.092C162.733 111.09 162.748 111.087 162.763 111.085C162.772 111.083 162.782 111.082 162.791 111.08C162.8 111.079 162.81 111.077 162.82 111.075C162.859 111.068 162.898 111.059 162.938 111.05C162.95 111.048 162.964 111.045 162.976 111.041C163.024 111.031 163.071 111.019 163.118 111.007C163.129 111.004 163.14 111.001 163.151 110.997C163.153 110.997 163.155 110.996 163.156 110.996C163.166 110.993 163.177 110.99 163.187 110.987C163.249 110.97 163.311 110.95 163.372 110.929C163.379 110.927 163.387 110.924 163.394 110.922C163.457 110.9 163.52 110.876 163.583 110.851C163.588 110.849 163.593 110.847 163.598 110.844C163.645 110.825 163.691 110.806 163.736 110.785C163.744 110.781 163.751 110.778 163.759 110.775C163.77 110.77 163.78 110.765 163.79 110.76C163.793 110.759 163.796 110.758 163.798 110.757C163.976 110.672 164.148 110.576 164.312 110.466C164.316 110.463 164.319 110.461 164.323 110.458C164.502 110.339 164.671 110.204 164.829 110.057C164.831 110.055 164.832 110.054 164.833 110.053C165.375 109.545 165.785 108.879 165.977 108.095C166.454 106.146 164.494 102.277 164.494 102.277C164.46 100.558 166.365 98.8293 165.926 97.1052C165.72 96.2974 165.284 95.6186 164.712 95.1098L148.231 78.629Z" fill="url(#paint6_linear_32_4133)"/>
<path d="M113.932 89.3366V82.4396C113.932 81.5498 114.653 80.8289 115.543 80.8289H194.855C195.744 80.8289 196.466 81.5498 196.466 82.4396V89.3366C196.466 90.2263 195.745 90.9479 194.855 90.9479H115.543C114.653 90.9479 113.932 90.2263 113.932 89.3366V89.3366Z" fill="url(#paint7_linear_32_4133)"/>
<path d="M143.031 90.9479H159.223L149.103 80.8289H143.031V90.9479Z" fill="url(#paint8_linear_32_4133)"/>
<path d="M138 114.475H131.103C130.213 114.475 129.492 113.753 129.492 112.863V68.0188C129.492 67.1291 130.213 66.4075 131.103 66.4075H138C138.89 66.4075 139.611 67.1285 139.611 68.0188V112.863C139.611 113.753 138.89 114.475 138 114.475Z" fill="url(#paint9_linear_32_4133)"/>
<path d="M129.492 91.9721L139.612 102.092V87.575H129.492V91.9721Z" fill="url(#paint10_linear_32_4133)"/>
<path d="M133.246 82.4048C132.359 81.6718 131.385 80.9269 130.041 80.1965C128.608 79.4169 127.041 78.4837 125.412 77.7741C123.139 76.7836 120.508 78.0814 119.918 80.4905C119.495 82.219 121.417 83.9299 121.399 85.6489C121.399 85.6489 119.474 89.5354 119.97 91.4798C120.582 93.8834 123.225 95.1566 125.489 94.1447C127.111 93.4199 128.669 92.4722 130.095 91.6794C131.432 90.9358 132.399 90.182 133.279 89.4409C135.465 87.5997 135.45 84.2252 133.246 82.4048Z" fill="url(#paint11_linear_32_4133)"/>
<path d="M147.684 85.4662C147.65 83.7471 149.556 82.018 149.116 80.2939C148.504 77.8904 145.861 76.6172 143.597 77.6291C141.976 78.3539 140.417 79.3015 138.991 80.0943C137.655 80.838 136.687 81.5917 135.808 82.3322C133.621 84.1741 133.637 87.5486 135.84 89.369C136.727 90.1013 137.701 90.8462 139.046 91.5773C140.479 92.3568 142.045 93.2894 143.674 93.9991C145.948 94.9902 148.578 93.6924 149.168 91.2832C149.645 89.3343 147.684 85.4662 147.684 85.4662Z" fill="url(#paint12_linear_32_4133)"/>
<path d="M133.278 89.442C133.975 88.8552 134.446 88.1128 134.696 87.3149C130.652 87.6965 124.339 89.097 121.977 94.0255C123.022 94.5784 124.306 94.6735 125.488 94.1452C127.11 93.4204 128.668 92.4727 130.094 91.6806C131.431 90.9369 132.398 90.1825 133.278 89.442Z" fill="url(#paint13_linear_32_4133)"/>
<path d="M123.072 85.6523C123.08 87.2706 123.293 91.7218 127.757 92.9982C128.566 92.5524 129.348 92.0952 130.095 91.6803C131.432 90.9372 132.399 90.1829 133.279 89.4424C134.504 88.4103 135.038 86.8965 134.882 85.4445C134.882 85.4445 132.539 84.1933 131.499 83.6958C125.879 81.0058 123.062 83.3753 123.072 85.6523Z" fill="url(#paint14_linear_32_4133)"/>
<path d="M135.84 89.3697C135.137 88.7891 134.659 88.0518 134.401 87.2559C138.448 87.5997 144.775 88.9409 147.183 93.8474C146.143 94.4097 144.86 94.5168 143.673 93.9998C142.045 93.2901 140.477 92.357 139.045 91.578C137.7 90.847 136.726 90.102 135.84 89.3697Z" fill="url(#paint15_linear_32_4133)"/>
<path d="M146.011 85.484C146.018 87.1023 145.848 91.5555 141.396 92.8734C140.583 92.4351 139.796 91.9855 139.045 91.5775C137.701 90.8471 136.727 90.1021 135.841 89.3692C134.605 88.3491 134.058 86.8404 134.2 85.3864C134.2 85.3864 136.531 84.1138 137.567 83.6063C143.161 80.864 146 83.2077 146.011 85.484Z" fill="url(#paint16_linear_32_4133)"/>
<path d="M148.467 92.7518L138.458 82.7442C137.989 82.2417 137.423 81.8311 136.792 81.5383C136.445 81.8041 136.12 82.0692 135.807 82.3324C133.621 84.1736 133.637 87.5481 135.841 89.3691C136.727 90.1014 137.702 90.8464 139.046 91.5774C140.478 92.3564 142.046 93.2895 143.674 93.9992C145.425 94.7624 147.387 94.1667 148.467 92.7518Z" fill="url(#paint17_linear_32_4133)"/>
<path d="M139.895 86.3951C139.895 89.3483 137.5 91.743 134.547 91.743C131.593 91.743 129.198 89.3483 129.198 86.3951C129.198 83.4412 131.593 81.0471 134.547 81.0471C137.5 81.0471 139.895 83.4412 139.895 86.3951Z" fill="url(#paint18_linear_32_4133)"/>
<path d="M141.422 96.3872C141.422 96.2423 141.507 96.1177 141.676 96.0125C141.845 95.908 142.026 95.8557 142.22 95.8557C142.461 95.8557 142.61 95.9445 142.667 96.1214L144.66 103.008L146.642 96.1214C146.697 95.9445 146.842 95.8557 147.074 95.8557C147.266 95.8557 147.448 95.908 147.621 96.0125C147.792 96.1164 147.879 96.2411 147.879 96.3853C147.879 96.4092 147.871 96.4457 147.855 96.4936L145.464 104.324C145.424 104.461 145.327 104.569 145.175 104.646C145.024 104.722 144.852 104.761 144.66 104.761C144.217 104.761 143.948 104.615 143.851 104.326L141.434 96.4961C141.426 96.4715 141.422 96.4357 141.422 96.3872Z" fill="url(#paint19_linear_32_4133)"/>
<path d="M148.759 102.066V98.5501C148.759 97.6239 149.004 96.9432 149.496 96.5081C149.987 96.073 150.643 95.8557 151.465 95.8557C152.287 95.8557 152.945 96.073 153.441 96.5081C153.936 96.9432 154.184 97.6239 154.184 98.5501V102.066C154.184 102.993 153.936 103.673 153.441 104.108C152.945 104.543 152.287 104.761 151.465 104.761C150.643 104.761 149.987 104.543 149.496 104.108C149.004 103.673 148.759 102.993 148.759 102.066ZM150.039 102.066C150.039 103.105 150.514 103.625 151.465 103.625C151.924 103.625 152.279 103.496 152.528 103.238C152.777 102.981 152.903 102.59 152.903 102.066V98.5501C152.903 98.0262 152.778 97.6358 152.528 97.3783C152.279 97.1201 151.924 96.9917 151.465 96.9917C150.514 96.9917 150.039 97.5112 150.039 98.5501V102.066Z" fill="url(#paint20_linear_32_4133)"/>
<path d="M155.647 102.067V96.2669C155.647 96.1303 155.71 96.027 155.834 95.959C155.959 95.8903 156.11 95.8563 156.288 95.8563C156.465 95.8563 156.616 95.8903 156.741 95.959C156.866 96.027 156.928 96.1303 156.928 96.2669V102.067C156.928 102.59 157.057 102.981 157.315 103.239C157.572 103.496 157.935 103.625 158.402 103.625C159.393 103.625 159.888 103.106 159.888 102.066V96.2669C159.888 96.1296 159.951 96.027 160.076 95.9584C160.201 95.8903 160.351 95.8557 160.529 95.8557C160.706 95.8557 160.857 95.8903 160.982 95.9584C161.107 96.027 161.169 96.1296 161.169 96.2669V102.066C161.169 102.993 160.917 103.673 160.414 104.108C159.91 104.544 159.24 104.761 158.402 104.761C157.572 104.761 156.906 104.544 156.402 104.108C155.899 103.674 155.647 102.993 155.647 102.067Z" fill="url(#paint21_linear_32_4133)"/>
<path d="M162.642 102.066V98.5501C162.642 97.6239 162.889 96.9432 163.385 96.5081C163.88 96.073 164.526 95.8557 165.324 95.8557C166.146 95.8557 166.808 96.0591 167.311 96.4653C167.815 96.8727 168.066 97.3978 168.066 98.042C168.066 98.3002 168.019 98.4752 167.922 98.5678C167.825 98.6603 167.66 98.7069 167.426 98.7069C167.007 98.7069 166.794 98.5659 166.786 98.2838C166.738 97.4224 166.266 96.991 165.372 96.991C164.405 96.991 163.922 97.5105 163.922 98.5501V102.066C163.922 103.105 164.414 103.625 165.396 103.625C165.686 103.625 165.928 103.583 166.121 103.498C166.315 103.413 166.454 103.29 166.538 103.129C166.622 102.969 166.681 102.828 166.713 102.707C166.745 102.586 166.77 102.437 166.786 102.26C166.81 101.978 167.019 101.836 167.414 101.836C167.648 101.836 167.815 101.883 167.916 101.976C168.016 102.068 168.066 102.243 168.066 102.501C168.066 103.17 167.813 103.714 167.306 104.132C166.798 104.551 166.133 104.761 165.312 104.761C164.514 104.761 163.87 104.543 163.379 104.108C162.887 103.673 162.642 102.993 162.642 102.066Z" fill="url(#paint22_linear_32_4133)"/>
<path d="M169.262 104.265V96.2663C169.262 96.1296 169.324 96.027 169.449 95.9584C169.573 95.8903 169.725 95.8557 169.902 95.8557C170.079 95.8557 170.23 95.8897 170.355 95.9584C170.48 96.027 170.543 96.1296 170.543 96.2663V99.6011H173.551V96.2663C173.551 96.1296 173.613 96.027 173.738 95.9584C173.863 95.8903 174.014 95.8557 174.192 95.8557C174.368 95.8557 174.52 95.8897 174.644 95.9584C174.769 96.027 174.831 96.1296 174.831 96.2663V104.265C174.831 104.394 174.769 104.497 174.644 104.573C174.52 104.65 174.368 104.688 174.192 104.688C174.022 104.688 173.873 104.65 173.744 104.573C173.615 104.497 173.551 104.394 173.551 104.265V100.616H170.543V104.265C170.543 104.394 170.48 104.497 170.355 104.573C170.23 104.65 170.079 104.688 169.902 104.688C169.733 104.688 169.583 104.65 169.455 104.573C169.326 104.497 169.262 104.394 169.262 104.265Z" fill="url(#paint23_linear_32_4133)"/>
<path d="M176.428 104.265V96.2782C176.428 96.1498 176.484 96.0471 176.597 95.9703C176.71 95.8935 176.843 95.8557 176.996 95.8557H181.297C181.434 95.8557 181.539 95.9118 181.611 96.0245C181.684 96.1372 181.72 96.2663 181.72 96.4111C181.72 96.5723 181.682 96.7096 181.606 96.8223C181.529 96.935 181.426 96.991 181.297 96.991H177.709V99.7585H179.569C179.698 99.7585 179.801 99.8089 179.878 99.909C179.954 100.01 179.992 100.133 179.992 100.278C179.992 100.406 179.956 100.522 179.883 100.622C179.811 100.723 179.707 100.773 179.569 100.773H177.709V103.552H181.297C181.426 103.552 181.529 103.608 181.606 103.721C181.682 103.834 181.72 103.971 181.72 104.132C181.72 104.277 181.684 104.406 181.611 104.519C181.539 104.632 181.434 104.688 181.297 104.688H176.996C176.843 104.688 176.71 104.65 176.597 104.573C176.484 104.497 176.428 104.394 176.428 104.265Z" fill="url(#paint24_linear_32_4133)"/>
<path d="M182.747 104.265V96.2663C182.747 96.1536 182.787 96.0572 182.868 95.9766C182.948 95.896 183.049 95.8557 183.17 95.8557H185.465C187.318 95.8557 188.244 96.6775 188.244 98.3203C188.244 99.0023 188.091 99.5375 187.785 99.9266C187.479 100.316 187.064 100.575 186.541 100.703L188.232 103.888C188.264 103.945 188.281 104.005 188.281 104.07C188.281 104.231 188.198 104.38 188.033 104.518C187.868 104.656 187.693 104.724 187.508 104.724C187.298 104.724 187.129 104.599 187 104.349L185.236 100.882H184.015V104.264C184.015 104.393 183.953 104.496 183.828 104.573C183.704 104.65 183.552 104.688 183.375 104.688C183.206 104.688 183.059 104.65 182.934 104.573C182.809 104.497 182.747 104.394 182.747 104.265ZM184.016 99.8668H185.465C186.464 99.8668 186.964 99.3883 186.964 98.4292C186.964 97.4709 186.464 96.991 185.465 96.991H184.016V99.8668Z" fill="url(#paint25_linear_32_4133)"/>
<path d="M290.864 19.0728C291.08 19.0728 291.255 18.8975 291.255 18.6811L291.256 16.8539C291.256 16.4828 290.955 16.1819 290.584 16.1819L273.373 16.1807C273.002 16.1807 272.701 16.4815 272.701 16.8526V18.6797C272.701 18.8961 272.876 19.0715 273.092 19.0717C273.309 19.0717 273.484 19.2471 273.484 19.4636L273.484 23.0645C273.484 23.2809 273.309 23.4563 273.092 23.4563C272.876 23.4563 272.7 23.6318 272.7 23.8482L272.7 25.6754C272.7 26.0465 273.001 26.3472 273.372 26.3474L290.583 26.3485C290.954 26.3485 291.255 26.0478 291.255 25.6767L291.255 23.8495C291.255 23.6331 291.08 23.4576 290.863 23.4576C290.647 23.4576 290.471 23.2822 290.471 23.0656L290.472 19.4647C290.472 19.2483 290.647 19.0728 290.864 19.0728Z" fill="url(#paint26_linear_32_4133)"/>
<path d="M272.7 23.9763L272.7 25.6759C272.7 26.0469 273.001 26.3476 273.372 26.3478L290.583 26.3489C290.954 26.3489 291.255 26.0482 291.255 25.6771L291.255 23.9765H272.7V23.9763Z" fill="url(#paint27_linear_32_4133)"/>
<path d="M273.455 21.3787L274.689 22.6124V21.3787H273.455Z" fill="url(#paint28_linear_32_4133)"/>
<path d="M278.467 16.2185L279.803 17.5543H278.467V16.2185Z" fill="url(#paint29_linear_32_4133)"/>
<path d="M289.366 25.1058H274.756C274.513 25.1058 274.315 24.9086 274.315 24.6652V17.8648C274.315 17.6214 274.513 17.4241 274.756 17.4241H289.366C289.609 17.4241 289.806 17.6214 289.806 17.8648V24.6652C289.806 24.9085 289.609 25.1058 289.366 25.1058Z" fill="url(#paint30_linear_32_4133)"/>
<path d="M280.408 18.606C280.156 18.3236 279.737 18.2145 279.364 18.3811C278.999 18.5444 278.649 18.7577 278.328 18.936C278.134 19.0438 277.975 19.1527 277.833 19.2611C277.679 19.1901 277.508 19.1503 277.328 19.1503C277.139 19.1503 276.96 19.1939 276.801 19.2716C276.661 19.1671 276.504 19.0625 276.314 18.9591C275.991 18.7838 275.638 18.5737 275.272 18.414C274.76 18.1909 274.168 18.483 274.035 19.0253C273.94 19.4143 274.372 19.7994 274.368 20.1863C274.368 20.1863 273.935 21.061 274.047 21.4988C274.093 21.6797 274.19 21.832 274.319 21.9462L277.954 25.5813C277.977 25.6076 278.002 25.6323 278.028 25.6555C278.1 25.7373 278.187 25.8046 278.282 25.8549C278.297 25.8627 278.311 25.87 278.326 25.8768C278.327 25.877 278.327 25.8773 278.328 25.8775C278.342 25.8841 278.357 25.8904 278.372 25.8962C278.373 25.8966 278.374 25.897 278.375 25.8974C278.389 25.903 278.403 25.9082 278.417 25.913C278.419 25.9136 278.421 25.9142 278.423 25.9147C278.436 25.9193 278.45 25.9234 278.464 25.9273C278.467 25.9279 278.469 25.9286 278.471 25.9292C278.485 25.9329 278.498 25.9361 278.512 25.9391C278.515 25.9398 278.518 25.9404 278.521 25.9411C278.534 25.9438 278.547 25.9462 278.56 25.9483C278.563 25.9489 278.567 25.9495 278.57 25.95C278.583 25.952 278.596 25.9536 278.608 25.955C278.612 25.9554 278.616 25.9558 278.621 25.9563C278.633 25.9575 278.645 25.9582 278.657 25.959C278.662 25.9592 278.666 25.9595 278.671 25.9597C278.683 25.9602 278.694 25.9604 278.706 25.9604C278.711 25.9604 278.716 25.9604 278.722 25.9602C278.733 25.9601 278.744 25.9595 278.756 25.959C278.761 25.9585 278.767 25.9584 278.772 25.958C278.783 25.9571 278.794 25.956 278.805 25.9547C278.811 25.954 278.817 25.9534 278.823 25.9527C278.834 25.9513 278.844 25.9495 278.855 25.9476C278.861 25.9466 278.867 25.9458 278.873 25.9445C278.884 25.9425 278.894 25.9401 278.905 25.9377C278.911 25.9363 278.918 25.935 278.924 25.9334C278.934 25.9308 278.945 25.9276 278.955 25.9245C278.962 25.9228 278.968 25.9213 278.974 25.9193C278.985 25.9157 278.996 25.9116 279.007 25.9076C279.013 25.9058 279.018 25.9041 279.023 25.9021C279.04 25.8959 279.056 25.8891 279.073 25.8819C279.301 25.78 279.523 25.6584 279.736 25.5379C279.779 25.5138 279.821 25.4898 279.863 25.466C279.947 25.4184 280.029 25.3716 280.109 25.327C280.222 25.2642 280.323 25.2012 280.416 25.1381C280.421 25.135 280.425 25.1319 280.429 25.1287C280.623 25.2625 280.858 25.341 281.112 25.341C281.373 25.341 281.615 25.2574 281.812 25.116C281.906 25.1789 282.009 25.2417 282.123 25.3039C282.164 25.3259 282.205 25.3484 282.246 25.3714C282.493 25.5083 282.756 25.6588 283.028 25.7869C283.074 25.8083 283.119 25.8291 283.165 25.849C283.181 25.8562 283.198 25.8627 283.214 25.8688C283.22 25.8708 283.225 25.8724 283.23 25.8742C283.231 25.8743 283.231 25.8745 283.231 25.8746C283.237 25.8765 283.242 25.8782 283.247 25.8799C283.253 25.8817 283.258 25.8838 283.264 25.8855C283.27 25.8874 283.276 25.8889 283.282 25.8906C283.293 25.8935 283.303 25.8965 283.313 25.899C283.314 25.8993 283.315 25.8994 283.316 25.8997C283.321 25.901 283.327 25.902 283.333 25.9033C283.343 25.9057 283.354 25.9079 283.365 25.9099C283.371 25.911 283.376 25.9118 283.382 25.9128C283.387 25.9135 283.392 25.9143 283.396 25.915C283.403 25.9159 283.409 25.9169 283.415 25.9176C283.421 25.9183 283.427 25.9188 283.433 25.9194C283.443 25.9204 283.453 25.9215 283.463 25.9222C283.465 25.9224 283.466 25.9225 283.468 25.9225C283.473 25.9228 283.478 25.923 283.482 25.9231C283.494 25.9237 283.505 25.9241 283.517 25.9242C283.522 25.9242 283.527 25.9242 283.532 25.9241H283.534C283.537 25.9241 283.541 25.9241 283.545 25.9239C283.553 25.9238 283.56 25.9235 283.567 25.9232C283.572 25.923 283.577 25.9227 283.581 25.9224C283.592 25.9217 283.602 25.921 283.612 25.92C283.615 25.9197 283.617 25.9194 283.619 25.9191C283.623 25.9188 283.626 25.9184 283.63 25.9179C283.643 25.9164 283.655 25.9147 283.668 25.9126C283.671 25.912 283.675 25.9115 283.678 25.9109C283.68 25.9105 283.682 25.9102 283.684 25.9098C283.687 25.9095 283.689 25.9091 283.691 25.9086C283.7 25.9071 283.709 25.9051 283.718 25.9031C283.72 25.9025 283.723 25.9018 283.726 25.9011C283.737 25.8987 283.748 25.8962 283.758 25.8933C283.761 25.8926 283.763 25.8919 283.766 25.8912C283.766 25.8911 283.766 25.8909 283.767 25.8909C283.769 25.8902 283.771 25.8895 283.774 25.8889C283.788 25.885 283.802 25.8806 283.815 25.8759C283.817 25.8753 283.819 25.8748 283.82 25.8742C283.835 25.8692 283.849 25.8639 283.863 25.8582C283.864 25.8578 283.865 25.8573 283.866 25.8568C283.877 25.8525 283.887 25.8481 283.897 25.8434C283.899 25.8426 283.901 25.8419 283.902 25.8412C283.905 25.84 283.907 25.8389 283.91 25.8378C283.91 25.8375 283.911 25.8374 283.911 25.8371C283.951 25.8181 283.99 25.7963 284.027 25.7716C284.028 25.771 284.029 25.7705 284.029 25.7699C284.07 25.743 284.108 25.7126 284.143 25.6795C284.144 25.6792 284.144 25.6789 284.144 25.6786C284.266 25.5643 284.358 25.4145 284.402 25.2379C284.509 24.7992 284.068 23.9285 284.068 23.9285C284.06 23.5416 284.489 23.1525 284.39 22.7645C284.344 22.5827 284.246 22.4299 284.117 22.3154L280.408 18.606Z" fill="url(#paint31_linear_32_4133)"/>
<path d="M272.688 21.0164V19.4641C272.688 19.2638 272.851 19.1016 273.051 19.1016H290.902C291.102 19.1016 291.264 19.2638 291.264 19.4641V21.0164C291.264 21.2166 291.102 21.3791 290.902 21.3791H273.051C272.851 21.3791 272.688 21.2166 272.688 21.0164V21.0164Z" fill="url(#paint32_linear_32_4133)"/>
<path d="M279.237 21.3791H282.882L280.604 19.1016H279.237V21.3791Z" fill="url(#paint33_linear_32_4133)"/>
<path d="M278.105 26.6742H276.553C276.353 26.6742 276.19 26.5118 276.19 26.3115V16.2184C276.19 16.0181 276.353 15.8557 276.553 15.8557H278.105C278.306 15.8557 278.468 16.018 278.468 16.2184V26.3115C278.468 26.5118 278.306 26.6742 278.105 26.6742Z" fill="url(#paint34_linear_32_4133)"/>
<path d="M276.19 21.6093L278.468 23.8869V20.6196H276.19V21.6093Z" fill="url(#paint35_linear_32_4133)"/>
<path d="M277.035 19.4562C276.835 19.2912 276.616 19.1235 276.314 18.9591C275.991 18.7837 275.638 18.5737 275.272 18.4139C274.76 18.191 274.168 18.4831 274.035 19.0253C273.94 19.4144 274.372 19.7994 274.368 20.1863C274.368 20.1863 273.935 21.0611 274.047 21.4987C274.185 22.0397 274.779 22.3262 275.289 22.0985C275.654 21.9353 276.005 21.722 276.326 21.5436C276.626 21.3762 276.844 21.2066 277.042 21.0398C277.534 20.6254 277.531 19.8659 277.035 19.4562Z" fill="url(#paint36_linear_32_4133)"/>
<path d="M280.284 20.1451C280.276 19.7582 280.705 19.369 280.606 18.981C280.469 18.44 279.874 18.1535 279.364 18.3812C278.999 18.5443 278.648 18.7576 278.328 18.9361C278.027 19.1034 277.809 19.2731 277.611 19.4398C277.119 19.8543 277.122 20.6138 277.618 21.0235C277.818 21.1883 278.037 21.356 278.34 21.5205C278.662 21.696 279.015 21.9059 279.381 22.0656C279.893 22.2887 280.485 21.9966 280.618 21.4544C280.725 21.0157 280.284 20.1451 280.284 20.1451Z" fill="url(#paint37_linear_32_4133)"/>
<path d="M277.043 21.0403C277.199 20.9082 277.306 20.7411 277.362 20.5615C276.452 20.6474 275.031 20.9626 274.499 22.0719C274.734 22.1963 275.023 22.2177 275.289 22.0988C275.654 21.9357 276.005 21.7224 276.326 21.5441C276.627 21.3767 276.845 21.2069 277.043 21.0403Z" fill="url(#paint38_linear_32_4133)"/>
<path d="M274.746 20.1871C274.748 20.5513 274.796 21.5531 275.8 21.8404C275.982 21.7401 276.159 21.6372 276.327 21.5438C276.628 21.3765 276.845 21.2068 277.043 21.0401C277.319 20.8078 277.439 20.4671 277.404 20.1403C277.404 20.1403 276.877 19.8587 276.643 19.7467C275.378 19.1413 274.744 19.6746 274.746 20.1871Z" fill="url(#paint39_linear_32_4133)"/>
<path d="M277.619 21.0239C277.461 20.8932 277.353 20.7272 277.295 20.5481C278.206 20.6255 279.63 20.9273 280.172 22.0317C279.938 22.1582 279.649 22.1823 279.382 22.066C279.015 21.9062 278.662 21.6962 278.34 21.5209C278.037 21.3563 277.818 21.1887 277.619 21.0239Z" fill="url(#paint40_linear_32_4133)"/>
<path d="M279.907 20.1493C279.909 20.5135 279.871 21.5158 278.869 21.8124C278.686 21.7137 278.509 21.6126 278.34 21.5207C278.037 21.3563 277.818 21.1887 277.618 21.0237C277.34 20.7941 277.217 20.4545 277.249 20.1273C277.249 20.1273 277.774 19.8409 278.007 19.7266C279.266 19.1094 279.905 19.6369 279.907 20.1493Z" fill="url(#paint41_linear_32_4133)"/>
<path d="M280.46 21.785L278.208 19.5326C278.102 19.4195 277.975 19.3271 277.832 19.2612C277.754 19.321 277.681 19.3807 277.611 19.4399C277.119 19.8543 277.122 20.6138 277.618 21.0237C277.818 21.1885 278.037 21.3562 278.34 21.5207C278.662 21.696 279.015 21.9061 279.381 22.0658C279.776 22.2376 280.217 22.1035 280.46 21.785Z" fill="url(#paint42_linear_32_4133)"/>
<path d="M278.532 20.3543C278.532 21.019 277.993 21.558 277.329 21.558C276.664 21.558 276.125 21.019 276.125 20.3543C276.125 19.6895 276.664 19.1506 277.329 19.1506C277.993 19.1506 278.532 19.6895 278.532 20.3543Z" fill="url(#paint43_linear_32_4133)"/>
<path d="M278.875 22.6035C278.875 22.5709 278.894 22.5428 278.932 22.5192C278.97 22.4956 279.011 22.4839 279.055 22.4839C279.109 22.4839 279.142 22.5039 279.155 22.5437L279.604 24.0937L280.05 22.5437C280.062 22.5039 280.095 22.4839 280.147 22.4839C280.19 22.4839 280.231 22.4956 280.27 22.5192C280.309 22.5426 280.328 22.5706 280.328 22.6031C280.328 22.6085 280.326 22.6167 280.323 22.6275L279.785 24.3898C279.776 24.4207 279.754 24.4449 279.72 24.4622C279.686 24.4795 279.647 24.4881 279.604 24.4881C279.504 24.4881 279.443 24.4554 279.422 24.3902L278.878 22.628C278.876 22.6225 278.875 22.6144 278.875 22.6035Z" fill="url(#paint44_linear_32_4133)"/>
<path d="M280.527 23.8817V23.0903C280.527 22.8818 280.583 22.7286 280.693 22.6307C280.804 22.5328 280.952 22.4839 281.136 22.4839C281.321 22.4839 281.47 22.5328 281.581 22.6307C281.693 22.7286 281.748 22.8818 281.748 23.0903V23.8817C281.748 24.0902 281.693 24.2434 281.581 24.3412C281.47 24.4391 281.321 24.4881 281.136 24.4881C280.952 24.4881 280.804 24.4391 280.693 24.3412C280.582 24.2434 280.527 24.0902 280.527 23.8817ZM280.815 23.8817C280.815 24.1156 280.922 24.2325 281.136 24.2325C281.24 24.2325 281.32 24.2034 281.376 24.1455C281.432 24.0875 281.46 23.9995 281.46 23.8817V23.0903C281.46 22.9724 281.432 22.8845 281.376 22.8266C281.32 22.7685 281.24 22.7396 281.136 22.7396C280.922 22.7396 280.815 22.8565 280.815 23.0903V23.8817Z" fill="url(#paint45_linear_32_4133)"/>
<path d="M282.077 23.8818V22.5764C282.077 22.5457 282.091 22.5224 282.119 22.5071C282.147 22.4917 282.181 22.484 282.221 22.484C282.261 22.484 282.295 22.4917 282.323 22.5071C282.351 22.5224 282.365 22.5457 282.365 22.5764V23.8818C282.365 23.9996 282.394 24.0876 282.452 24.1456C282.51 24.2036 282.592 24.2326 282.697 24.2326C282.92 24.2326 283.032 24.1157 283.032 23.8817V22.5764C283.032 22.5455 283.046 22.5224 283.074 22.507C283.102 22.4917 283.136 22.4839 283.176 22.4839C283.216 22.4839 283.25 22.4917 283.278 22.507C283.306 22.5224 283.32 22.5455 283.32 22.5764V23.8817C283.32 24.0903 283.263 24.2434 283.15 24.3413C283.037 24.4392 282.886 24.4881 282.697 24.4881C282.51 24.4881 282.36 24.4392 282.247 24.3413C282.134 24.2435 282.077 24.0903 282.077 23.8818Z" fill="url(#paint46_linear_32_4133)"/>
<path d="M283.651 23.8817V23.0903C283.651 22.8818 283.707 22.7286 283.819 22.6307C283.93 22.5328 284.076 22.4839 284.255 22.4839C284.44 22.4839 284.589 22.5297 284.702 22.6211C284.816 22.7128 284.872 22.831 284.872 22.976C284.872 23.0341 284.862 23.0735 284.84 23.0943C284.818 23.1151 284.781 23.1256 284.728 23.1256C284.634 23.1256 284.586 23.0939 284.584 23.0304C284.573 22.8365 284.467 22.7394 284.266 22.7394C284.048 22.7394 283.94 22.8563 283.94 23.0903V23.8817C283.94 24.1156 284.05 24.2325 284.271 24.2325C284.337 24.2325 284.391 24.223 284.435 24.204C284.478 24.1849 284.509 24.1572 284.528 24.1209C284.547 24.0848 284.561 24.0531 284.568 24.0258C284.575 23.9986 284.581 23.965 284.584 23.9252C284.59 23.8617 284.637 23.83 284.725 23.83C284.778 23.83 284.816 23.8405 284.838 23.8613C284.861 23.8821 284.872 23.9215 284.872 23.9796C284.872 24.1302 284.815 24.2525 284.701 24.3467C284.587 24.441 284.437 24.4881 284.252 24.4881C284.073 24.4881 283.928 24.4391 283.817 24.3412C283.707 24.2434 283.651 24.0902 283.651 23.8817Z" fill="url(#paint47_linear_32_4133)"/>
<path d="M285.142 24.3766V22.5763C285.142 22.5455 285.156 22.5224 285.184 22.507C285.212 22.4917 285.246 22.4839 285.286 22.4839C285.326 22.4839 285.36 22.4915 285.388 22.507C285.416 22.5224 285.43 22.5455 285.43 22.5763V23.3269H286.107V22.5763C286.107 22.5455 286.121 22.5224 286.149 22.507C286.177 22.4917 286.211 22.4839 286.251 22.4839C286.291 22.4839 286.325 22.4915 286.353 22.507C286.381 22.5224 286.395 22.5455 286.395 22.5763V24.3766C286.395 24.4057 286.381 24.4288 286.353 24.4459C286.325 24.4632 286.291 24.4718 286.251 24.4718C286.213 24.4718 286.179 24.4632 286.151 24.4459C286.121 24.4288 286.107 24.4057 286.107 24.3766V23.5553H285.43V24.3766C285.43 24.4057 285.416 24.4288 285.388 24.4459C285.36 24.4632 285.326 24.4718 285.286 24.4718C285.248 24.4718 285.214 24.4632 285.185 24.4459C285.156 24.4288 285.142 24.4057 285.142 24.3766Z" fill="url(#paint48_linear_32_4133)"/>
<path d="M286.754 24.3766V22.579C286.754 22.5501 286.767 22.527 286.792 22.5097C286.817 22.4924 286.847 22.4839 286.882 22.4839H287.85C287.881 22.4839 287.904 22.4965 287.921 22.5219C287.937 22.5472 287.945 22.5763 287.945 22.6089C287.945 22.6452 287.936 22.6761 287.919 22.7014C287.902 22.7268 287.879 22.7394 287.85 22.7394H287.042V23.3623H287.461C287.49 23.3623 287.513 23.3736 287.53 23.3962C287.548 23.419 287.556 23.4465 287.556 23.4792C287.556 23.5081 287.548 23.5341 287.532 23.5567C287.515 23.5794 287.492 23.5906 287.461 23.5906H287.042V24.2162H287.85C287.879 24.2162 287.902 24.2288 287.919 24.2542C287.936 24.2797 287.945 24.3104 287.945 24.3467C287.945 24.3793 287.937 24.4084 287.921 24.4337C287.904 24.4591 287.881 24.4717 287.85 24.4717H286.882C286.847 24.4717 286.817 24.4632 286.792 24.4459C286.767 24.4288 286.754 24.4057 286.754 24.3766Z" fill="url(#paint49_linear_32_4133)"/>
<path d="M288.177 24.3766V22.5763C288.177 22.5509 288.186 22.5292 288.204 22.5111C288.222 22.493 288.245 22.4839 288.272 22.4839H288.789C289.206 22.4839 289.414 22.6688 289.414 23.0386C289.414 23.1921 289.38 23.3125 289.311 23.4001C289.242 23.4877 289.148 23.546 289.031 23.5749L289.411 24.2917C289.419 24.3045 289.422 24.3181 289.422 24.3327C289.422 24.369 289.404 24.4025 289.367 24.4336C289.329 24.4645 289.29 24.4799 289.248 24.4799C289.201 24.4799 289.163 24.4517 289.134 24.3955L288.737 23.6151H288.462V24.3763C288.462 24.4054 288.448 24.4286 288.42 24.4459C288.392 24.4632 288.358 24.4718 288.318 24.4718C288.28 24.4718 288.247 24.4632 288.219 24.4459C288.191 24.4288 288.177 24.4057 288.177 24.3766ZM288.462 23.3867H288.789C289.013 23.3867 289.126 23.279 289.126 23.0631C289.126 22.8474 289.013 22.7394 288.789 22.7394H288.462V23.3867Z" fill="url(#paint50_linear_32_4133)"/>
<defs>
<linearGradient id="paint0_linear_32_4133" x1="169.476" y1="-33.358" x2="177.869" y2="345.937" gradientUnits="userSpaceOnUse">
<stop stop-color="#FD749B"/>
<stop offset="1" stop-color="#281AC8"/>
</linearGradient>
<linearGradient id="paint1_linear_32_4133" x1="133.822" y1="69.0601" x2="189.62" y2="124.858" gradientUnits="userSpaceOnUse">
<stop stop-color="#FFD459"/>
<stop offset="0.2296" stop-color="#FFD355"/>
<stop offset="0.4362" stop-color="#FFCF4A"/>
<stop offset="0.634" stop-color="#FFC838"/>
<stop offset="0.825" stop-color="#FFBF1F"/>
<stop offset="1" stop-color="#FFB400"/>
</linearGradient>
<linearGradient id="paint2_linear_32_4133" x1="155.202" y1="107.147" x2="155.202" y2="115.431" gradientUnits="userSpaceOnUse">
<stop stop-color="#E58200" stop-opacity="0"/>
<stop offset="0.0396" stop-color="#E27F04" stop-opacity="0.039216"/>
<stop offset="0.4671" stop-color="#C15D2F" stop-opacity="0.466667"/>
<stop offset="0.8016" stop-color="#AD4949" stop-opacity="0.8"/>
<stop offset="1" stop-color="#A64153"/>
</linearGradient>
<linearGradient id="paint3_linear_32_4133" x1="121.608" y1="94.4507" x2="119.426" y2="89.4645" gradientUnits="userSpaceOnUse">
<stop stop-color="#E58200" stop-opacity="0"/>
<stop offset="0.0396" stop-color="#E27F04" stop-opacity="0.039216"/>
<stop offset="0.4671" stop-color="#C15D2F" stop-opacity="0.466667"/>
<stop offset="0.8016" stop-color="#AD4949" stop-opacity="0.8"/>
<stop offset="1" stop-color="#A64153"/>
</linearGradient>
<linearGradient id="paint4_linear_32_4133" x1="143.739" y1="73.9057" x2="131.089" y2="64.9665" gradientUnits="userSpaceOnUse">
<stop stop-color="#E58200" stop-opacity="0"/>
<stop offset="0.0396" stop-color="#E27F04" stop-opacity="0.039216"/>
<stop offset="0.4671" stop-color="#C15D2F" stop-opacity="0.466667"/>
<stop offset="0.8016" stop-color="#AD4949" stop-opacity="0.8"/>
<stop offset="1" stop-color="#A64153"/>
</linearGradient>
<linearGradient id="paint5_linear_32_4133" x1="138.234" y1="73.1004" x2="183.484" y2="118.357" gradientUnits="userSpaceOnUse">
<stop stop-color="#FFFCF8"/>
<stop offset="0.1875" stop-color="#FAF8F6"/>
<stop offset="0.4041" stop-color="#ECEEF2"/>
<stop offset="0.6353" stop-color="#D5DCEA"/>
<stop offset="0.875" stop-color="#B5C4DF"/>
<stop offset="1" stop-color="#A1B5D8"/>
</linearGradient>
<linearGradient id="paint6_linear_32_4133" x1="146.366" y1="102.107" x2="132.198" y2="69.7231" gradientUnits="userSpaceOnUse">
<stop stop-color="#A1B5D8" stop-opacity="0"/>
<stop offset="0.0343" stop-color="#9FB3D5" stop-opacity="0.035294"/>
<stop offset="0.4515" stop-color="#8898AF" stop-opacity="0.45098"/>
<stop offset="0.788" stop-color="#798898" stop-opacity="0.788235"/>
<stop offset="1" stop-color="#748290"/>
</linearGradient>
<linearGradient id="paint7_linear_32_4133" x1="155.199" y1="83.864" x2="155.199" y2="94.8272" gradientUnits="userSpaceOnUse">
<stop stop-color="#FF6E3A"/>
<stop offset="0.1596" stop-color="#FF6440"/>
<stop offset="0.4266" stop-color="#FF4B52"/>
<stop offset="0.7662" stop-color="#FF216E"/>
<stop offset="1" stop-color="#FF0084"/>
</linearGradient>
<linearGradient id="paint8_linear_32_4133" x1="152.814" y1="92.6345" x2="140.951" y2="80.7717" gradientUnits="userSpaceOnUse">
<stop stop-color="#E58200" stop-opacity="0"/>
<stop offset="0.4384" stop-color="#C4602C" stop-opacity="0.439216"/>
<stop offset="0.7953" stop-color="#AE4948" stop-opacity="0.796078"/>
<stop offset="1" stop-color="#A64153"/>
</linearGradient>
<linearGradient id="paint9_linear_32_4133" x1="134.552" y1="87.6518" x2="134.552" y2="125.426" gradientUnits="userSpaceOnUse">
<stop stop-color="#FF6E3A"/>
<stop offset="0.1596" stop-color="#FF6440"/>
<stop offset="0.4266" stop-color="#FF4B52"/>
<stop offset="0.7662" stop-color="#FF216E"/>
<stop offset="1" stop-color="#FF0084"/>
</linearGradient>
<linearGradient id="paint10_linear_32_4133" x1="141.03" y1="96.2514" x2="129.922" y2="85.1438" gradientUnits="userSpaceOnUse">
<stop stop-color="#E58200" stop-opacity="0"/>
<stop offset="0.4384" stop-color="#C4602C" stop-opacity="0.439216"/>
<stop offset="0.7953" stop-color="#AE4948" stop-opacity="0.796078"/>
<stop offset="1" stop-color="#A64153"/>
</linearGradient>
<linearGradient id="paint11_linear_32_4133" x1="129.365" y1="95.6887" x2="124.855" y2="78.6381" gradientUnits="userSpaceOnUse">
<stop stop-color="#FF0084"/>
<stop offset="0.2338" stop-color="#FF216E"/>
<stop offset="0.5734" stop-color="#FF4B52"/>
<stop offset="0.8404" stop-color="#FF6440"/>
<stop offset="1" stop-color="#FF6E3A"/>
</linearGradient>
<linearGradient id="paint12_linear_32_4133" x1="141.098" y1="96.4986" x2="142.638" y2="75.5978" gradientUnits="userSpaceOnUse">
<stop stop-color="#FF0084"/>
<stop offset="0.2338" stop-color="#FF216E"/>
<stop offset="0.5734" stop-color="#FF4B52"/>
<stop offset="0.8404" stop-color="#FF6440"/>
<stop offset="1" stop-color="#FF6E3A"/>
</linearGradient>
<linearGradient id="paint13_linear_32_4133" x1="128.421" y1="92.6614" x2="128.103" y2="86.1928" gradientUnits="userSpaceOnUse">
<stop stop-color="#E58200" stop-opacity="0"/>
<stop offset="0.4384" stop-color="#C4602C" stop-opacity="0.439216"/>
<stop offset="0.7953" stop-color="#AE4948" stop-opacity="0.796078"/>
<stop offset="1" stop-color="#A64153"/>
</linearGradient>
<linearGradient id="paint14_linear_32_4133" x1="126.906" y1="87.861" x2="137.729" y2="79.1188" gradientUnits="userSpaceOnUse">
<stop stop-color="#E58200" stop-opacity="0"/>
<stop offset="0.4384" stop-color="#C4602C" stop-opacity="0.439216"/>
<stop offset="0.7953" stop-color="#AE4948" stop-opacity="0.796078"/>
<stop offset="1" stop-color="#A64153"/>
</linearGradient>
<linearGradient id="paint15_linear_32_4133" x1="140.697" y1="92.5426" x2="140.954" y2="86.0701" gradientUnits="userSpaceOnUse">
<stop stop-color="#E58200" stop-opacity="0"/>
<stop offset="0.4384" stop-color="#C4602C" stop-opacity="0.439216"/>
<stop offset="0.7953" stop-color="#AE4948" stop-opacity="0.796078"/>
<stop offset="1" stop-color="#A64153"/>
</linearGradient>
<linearGradient id="paint16_linear_32_4133" x1="142.169" y1="87.7275" x2="131.263" y2="79.0873" gradientUnits="userSpaceOnUse">
<stop stop-color="#E58200" stop-opacity="0"/>
<stop offset="0.4384" stop-color="#C4602C" stop-opacity="0.439216"/>
<stop offset="0.7953" stop-color="#AE4948" stop-opacity="0.796078"/>
<stop offset="1" stop-color="#A64153"/>
</linearGradient>
<linearGradient id="paint17_linear_32_4133" x1="143.236" y1="92.1559" x2="134.905" y2="83.8242" gradientUnits="userSpaceOnUse">
<stop stop-color="#E58200" stop-opacity="0"/>
<stop offset="0.4384" stop-color="#C4602C" stop-opacity="0.439216"/>
<stop offset="0.7953" stop-color="#AE4948" stop-opacity="0.796078"/>
<stop offset="1" stop-color="#A64153"/>
</linearGradient>
<linearGradient id="paint18_linear_32_4133" x1="131.454" y1="83.3026" x2="139.114" y2="90.9628" gradientUnits="userSpaceOnUse">
<stop stop-color="#FF6E3A"/>
<stop offset="0.1596" stop-color="#FF6440"/>
<stop offset="0.4266" stop-color="#FF4B52"/>
<stop offset="0.7662" stop-color="#FF216E"/>
<stop offset="1" stop-color="#FF0084"/>
</linearGradient>
<linearGradient id="paint19_linear_32_4133" x1="144.651" y1="98.497" x2="144.651" y2="106.727" gradientUnits="userSpaceOnUse">
<stop stop-color="#45425A"/>
<stop offset="1" stop-color="#2D3251"/>
</linearGradient>
<linearGradient id="paint20_linear_32_4133" x1="151.471" y1="98.497" x2="151.471" y2="106.727" gradientUnits="userSpaceOnUse">
<stop stop-color="#45425A"/>
<stop offset="1" stop-color="#2D3251"/>
</linearGradient>
<linearGradient id="paint21_linear_32_4133" x1="158.408" y1="98.4976" x2="158.408" y2="106.728" gradientUnits="userSpaceOnUse">
<stop stop-color="#45425A"/>
<stop offset="1" stop-color="#2D3251"/>
</linearGradient>
<linearGradient id="paint22_linear_32_4133" x1="165.354" y1="98.497" x2="165.354" y2="106.727" gradientUnits="userSpaceOnUse">
<stop stop-color="#45425A"/>
<stop offset="1" stop-color="#2D3251"/>
</linearGradient>
<linearGradient id="paint23_linear_32_4133" x1="172.047" y1="98.497" x2="172.047" y2="106.727" gradientUnits="userSpaceOnUse">
<stop stop-color="#45425A"/>
<stop offset="1" stop-color="#2D3251"/>
</linearGradient>
<linearGradient id="paint24_linear_32_4133" x1="179.074" y1="98.497" x2="179.074" y2="106.727" gradientUnits="userSpaceOnUse">
<stop stop-color="#45425A"/>
<stop offset="1" stop-color="#2D3251"/>
</linearGradient>
<linearGradient id="paint25_linear_32_4133" x1="185.514" y1="98.497" x2="185.514" y2="106.727" gradientUnits="userSpaceOnUse">
<stop stop-color="#45425A"/>
<stop offset="1" stop-color="#2D3251"/>
</linearGradient>
<linearGradient id="paint26_linear_32_4133" x1="277.166" y1="16.4525" x2="289.724" y2="29.011" gradientUnits="userSpaceOnUse">
<stop stop-color="#FFD459"/>
<stop offset="0.2296" stop-color="#FFD355"/>
<stop offset="0.4362" stop-color="#FFCF4A"/>
<stop offset="0.634" stop-color="#FFC838"/>
<stop offset="0.825" stop-color="#FFBF1F"/>
<stop offset="1" stop-color="#FFB400"/>
</linearGradient>
<linearGradient id="paint27_linear_32_4133" x1="281.978" y1="25.025" x2="281.978" y2="26.8895" gradientUnits="userSpaceOnUse">
<stop stop-color="#E58200" stop-opacity="0"/>
<stop offset="0.0396" stop-color="#E27F04" stop-opacity="0.039216"/>
<stop offset="0.4671" stop-color="#C15D2F" stop-opacity="0.466667"/>
<stop offset="0.8016" stop-color="#AD4949" stop-opacity="0.8"/>
<stop offset="1" stop-color="#A64153"/>
</linearGradient>
<linearGradient id="paint28_linear_32_4133" x1="274.417" y1="22.1672" x2="273.926" y2="21.045" gradientUnits="userSpaceOnUse">
<stop stop-color="#E58200" stop-opacity="0"/>
<stop offset="0.0396" stop-color="#E27F04" stop-opacity="0.039216"/>
<stop offset="0.4671" stop-color="#C15D2F" stop-opacity="0.466667"/>
<stop offset="0.8016" stop-color="#AD4949" stop-opacity="0.8"/>
<stop offset="1" stop-color="#A64153"/>
</linearGradient>
<linearGradient id="paint29_linear_32_4133" x1="279.396" y1="17.5432" x2="276.549" y2="15.5313" gradientUnits="userSpaceOnUse">
<stop stop-color="#E58200" stop-opacity="0"/>
<stop offset="0.0396" stop-color="#E27F04" stop-opacity="0.039216"/>
<stop offset="0.4671" stop-color="#C15D2F" stop-opacity="0.466667"/>
<stop offset="0.8016" stop-color="#AD4949" stop-opacity="0.8"/>
<stop offset="1" stop-color="#A64153"/>
</linearGradient>
<linearGradient id="paint30_linear_32_4133" x1="278.158" y1="17.362" x2="288.343" y2="27.5479" gradientUnits="userSpaceOnUse">
<stop stop-color="#FFFCF8"/>
<stop offset="0.1875" stop-color="#FAF8F6"/>
<stop offset="0.4041" stop-color="#ECEEF2"/>
<stop offset="0.6353" stop-color="#D5DCEA"/>
<stop offset="0.875" stop-color="#B5C4DF"/>
<stop offset="1" stop-color="#A1B5D8"/>
</linearGradient>
<linearGradient id="paint31_linear_32_4133" x1="279.988" y1="23.8902" x2="276.799" y2="16.6016" gradientUnits="userSpaceOnUse">
<stop stop-color="#A1B5D8" stop-opacity="0"/>
<stop offset="0.0343" stop-color="#9FB3D5" stop-opacity="0.035294"/>
<stop offset="0.4515" stop-color="#8898AF" stop-opacity="0.45098"/>
<stop offset="0.788" stop-color="#798898" stop-opacity="0.788235"/>
<stop offset="1" stop-color="#748290"/>
</linearGradient>
<linearGradient id="paint32_linear_32_4133" x1="281.976" y1="19.7847" x2="281.976" y2="22.2522" gradientUnits="userSpaceOnUse">
<stop stop-color="#FF6E3A"/>
<stop offset="0.1596" stop-color="#FF6440"/>
<stop offset="0.4266" stop-color="#FF4B52"/>
<stop offset="0.7662" stop-color="#FF216E"/>
<stop offset="1" stop-color="#FF0084"/>
</linearGradient>
<linearGradient id="paint33_linear_32_4133" x1="281.439" y1="21.7587" x2="278.769" y2="19.0887" gradientUnits="userSpaceOnUse">
<stop stop-color="#E58200" stop-opacity="0"/>
<stop offset="0.4384" stop-color="#C4602C" stop-opacity="0.439216"/>
<stop offset="0.7953" stop-color="#AE4948" stop-opacity="0.796078"/>
<stop offset="1" stop-color="#A64153"/>
</linearGradient>
<linearGradient id="paint34_linear_32_4133" x1="277.329" y1="20.6372" x2="277.329" y2="29.139" gradientUnits="userSpaceOnUse">
<stop stop-color="#FF6E3A"/>
<stop offset="0.1596" stop-color="#FF6440"/>
<stop offset="0.4266" stop-color="#FF4B52"/>
<stop offset="0.7662" stop-color="#FF216E"/>
<stop offset="1" stop-color="#FF0084"/>
</linearGradient>
<linearGradient id="paint35_linear_32_4133" x1="278.787" y1="22.5724" x2="276.287" y2="20.0725" gradientUnits="userSpaceOnUse">
<stop stop-color="#E58200" stop-opacity="0"/>
<stop offset="0.4384" stop-color="#C4602C" stop-opacity="0.439216"/>
<stop offset="0.7953" stop-color="#AE4948" stop-opacity="0.796078"/>
<stop offset="1" stop-color="#A64153"/>
</linearGradient>
<linearGradient id="paint36_linear_32_4133" x1="276.161" y1="22.446" x2="275.146" y2="18.6084" gradientUnits="userSpaceOnUse">
<stop stop-color="#FF0084"/>
<stop offset="0.2338" stop-color="#FF216E"/>
<stop offset="0.5734" stop-color="#FF4B52"/>
<stop offset="0.8404" stop-color="#FF6440"/>
<stop offset="1" stop-color="#FF6E3A"/>
</linearGradient>
<linearGradient id="paint37_linear_32_4133" x1="278.802" y1="22.6282" x2="279.148" y2="17.924" gradientUnits="userSpaceOnUse">
<stop stop-color="#FF0084"/>
<stop offset="0.2338" stop-color="#FF216E"/>
<stop offset="0.5734" stop-color="#FF4B52"/>
<stop offset="0.8404" stop-color="#FF6440"/>
<stop offset="1" stop-color="#FF6E3A"/>
</linearGradient>
<linearGradient id="paint38_linear_32_4133" x1="275.949" y1="21.7649" x2="275.878" y2="20.309" gradientUnits="userSpaceOnUse">
<stop stop-color="#E58200" stop-opacity="0"/>
<stop offset="0.4384" stop-color="#C4602C" stop-opacity="0.439216"/>
<stop offset="0.7953" stop-color="#AE4948" stop-opacity="0.796078"/>
<stop offset="1" stop-color="#A64153"/>
</linearGradient>
<linearGradient id="paint39_linear_32_4133" x1="275.609" y1="20.6842" x2="278.045" y2="18.7166" gradientUnits="userSpaceOnUse">
<stop stop-color="#E58200" stop-opacity="0"/>
<stop offset="0.4384" stop-color="#C4602C" stop-opacity="0.439216"/>
<stop offset="0.7953" stop-color="#AE4948" stop-opacity="0.796078"/>
<stop offset="1" stop-color="#A64153"/>
</linearGradient>
<linearGradient id="paint40_linear_32_4133" x1="278.712" y1="21.738" x2="278.77" y2="20.2812" gradientUnits="userSpaceOnUse">
<stop stop-color="#E58200" stop-opacity="0"/>
<stop offset="0.4384" stop-color="#C4602C" stop-opacity="0.439216"/>
<stop offset="0.7953" stop-color="#AE4948" stop-opacity="0.796078"/>
<stop offset="1" stop-color="#A64153"/>
</linearGradient>
<linearGradient id="paint41_linear_32_4133" x1="279.043" y1="20.6542" x2="276.588" y2="18.7095" gradientUnits="userSpaceOnUse">
<stop stop-color="#E58200" stop-opacity="0"/>
<stop offset="0.4384" stop-color="#C4602C" stop-opacity="0.439216"/>
<stop offset="0.7953" stop-color="#AE4948" stop-opacity="0.796078"/>
<stop offset="1" stop-color="#A64153"/>
</linearGradient>
<linearGradient id="paint42_linear_32_4133" x1="279.283" y1="21.6509" x2="277.408" y2="19.7757" gradientUnits="userSpaceOnUse">
<stop stop-color="#E58200" stop-opacity="0"/>
<stop offset="0.4384" stop-color="#C4602C" stop-opacity="0.439216"/>
<stop offset="0.7953" stop-color="#AE4948" stop-opacity="0.796078"/>
<stop offset="1" stop-color="#A64153"/>
</linearGradient>
<linearGradient id="paint43_linear_32_4133" x1="276.633" y1="19.6583" x2="278.357" y2="21.3824" gradientUnits="userSpaceOnUse">
<stop stop-color="#FF6E3A"/>
<stop offset="0.1596" stop-color="#FF6440"/>
<stop offset="0.4266" stop-color="#FF4B52"/>
<stop offset="0.7662" stop-color="#FF216E"/>
<stop offset="1" stop-color="#FF0084"/>
</linearGradient>
<linearGradient id="paint44_linear_32_4133" x1="279.602" y1="23.0784" x2="279.602" y2="24.9307" gradientUnits="userSpaceOnUse">
<stop stop-color="#45425A"/>
<stop offset="1" stop-color="#2D3251"/>
</linearGradient>
<linearGradient id="paint45_linear_32_4133" x1="281.138" y1="23.0784" x2="281.138" y2="24.9307" gradientUnits="userSpaceOnUse">
<stop stop-color="#45425A"/>
<stop offset="1" stop-color="#2D3251"/>
</linearGradient>
<linearGradient id="paint46_linear_32_4133" x1="282.699" y1="23.0785" x2="282.699" y2="24.9309" gradientUnits="userSpaceOnUse">
<stop stop-color="#45425A"/>
<stop offset="1" stop-color="#2D3251"/>
</linearGradient>
<linearGradient id="paint47_linear_32_4133" x1="284.262" y1="23.0784" x2="284.262" y2="24.9307" gradientUnits="userSpaceOnUse">
<stop stop-color="#45425A"/>
<stop offset="1" stop-color="#2D3251"/>
</linearGradient>
<linearGradient id="paint48_linear_32_4133" x1="285.768" y1="23.0784" x2="285.768" y2="24.9307" gradientUnits="userSpaceOnUse">
<stop stop-color="#45425A"/>
<stop offset="1" stop-color="#2D3251"/>
</linearGradient>
<linearGradient id="paint49_linear_32_4133" x1="287.35" y1="23.0784" x2="287.35" y2="24.9307" gradientUnits="userSpaceOnUse">
<stop stop-color="#45425A"/>
<stop offset="1" stop-color="#2D3251"/>
</linearGradient>
<linearGradient id="paint50_linear_32_4133" x1="288.799" y1="23.0784" x2="288.799" y2="24.9307" gradientUnits="userSpaceOnUse">
<stop stop-color="#45425A"/>
<stop offset="1" stop-color="#2D3251"/>
</linearGradient>
</defs>
</svg>
