<svg width="309" height="214" viewBox="0 0 309 214" fill="none" xmlns="http://www.w3.org/2000/svg">
<path d="M0.363281 19.9547C0.363281 8.934 9.29728 0 20.3179 0H288.409C299.429 0 308.363 8.934 308.363 19.9547V194.045C308.363 205.066 299.429 214 288.409 214H20.3179C9.29729 214 0.363281 205.066 0.363281 194.045V19.9547Z" fill="black"/>
<path fill-rule="evenodd" clip-rule="evenodd" d="M153.775 123.23C171.641 123.23 186.123 108.748 186.123 90.882C186.123 73.0165 171.641 58.5337 153.775 58.5337C135.91 58.5337 121.427 73.0165 121.427 90.882C121.427 93.0652 121.643 95.1978 122.055 97.2597L140.909 97.8089C142.137 95.4723 144.242 93.599 146.937 92.7082L147.138 83.6034C147.118 83.5493 147.098 83.4959 147.078 83.4424C147.037 83.3358 146.996 83.2294 146.963 83.1189C145.051 76.8698 148.588 70.2477 154.863 68.3285C161.136 66.4095 167.773 69.919 169.685 76.1682C171.2 81.1191 169.288 86.2934 165.315 89.1892L159.67 98.0306C159.911 98.5247 160.129 99.0352 160.294 99.5764C161.989 105.115 158.855 110.984 153.297 112.684C148.502 114.151 143.476 112.034 141.094 107.874L125.976 107.434C131.621 116.894 141.958 123.23 153.775 123.23ZM160.226 86.0089C163.708 84.9439 165.67 81.2674 164.609 77.7987C163.548 74.3301 159.865 72.3813 156.383 73.4463C152.9 74.512 150.938 78.1876 151.999 81.6562C153.06 85.1248 156.741 87.0751 160.226 86.0089ZM160.984 88.4711C156.111 89.9617 150.957 87.2351 149.472 82.3811C147.987 77.5248 150.733 72.3816 155.606 70.891C160.478 69.4006 165.635 72.1263 167.12 76.9825C168.605 81.8365 165.856 86.9805 160.984 88.4711ZM146.881 97.3017C150.59 96.1671 154.515 98.2441 155.645 101.939C156.775 105.634 154.685 109.551 150.975 110.685C147.954 111.609 144.792 110.405 143.112 107.931L147.576 108.062C150.343 108.603 153.036 106.807 153.585 104.042C154.134 101.282 152.337 98.603 149.567 98.0595L145.425 97.9391C145.878 97.6799 146.36 97.4611 146.881 97.3017Z" fill="white"/>
<path fill-rule="evenodd" clip-rule="evenodd" d="M286.318 22.6154C289.759 22.6154 292.548 19.8258 292.548 16.3847C292.548 12.9436 289.759 10.1541 286.318 10.1541C282.876 10.1541 280.087 12.9436 280.087 16.3847C280.087 16.8052 280.129 17.2159 280.208 17.6131L283.838 17.7188C284.074 17.2687 284.48 16.9079 284.999 16.7364L285.037 14.9827C285.034 14.9723 285.03 14.962 285.026 14.9517C285.018 14.9311 285.01 14.9106 285.004 14.8894C284.635 13.6857 285.317 12.4102 286.525 12.0405C287.734 11.6709 289.012 12.3469 289.38 13.5506C289.672 14.5042 289.304 15.5008 288.538 16.0586L287.451 17.7615C287.498 17.8567 287.54 17.955 287.571 18.0593C287.898 19.126 287.294 20.2565 286.224 20.584C285.3 20.8665 284.332 20.4588 283.873 19.6574L280.963 19.5727C282.05 21.3949 284.041 22.6154 286.318 22.6154ZM287.558 15.446C288.229 15.2409 288.607 14.5327 288.402 13.8646C288.198 13.1965 287.489 12.8212 286.818 13.0263C286.147 13.2316 285.769 13.9395 285.974 14.6076C286.178 15.2757 286.887 15.6513 287.558 15.446ZM287.704 15.9202C286.766 16.2073 285.773 15.6822 285.487 14.7472C285.201 13.8119 285.73 12.8212 286.668 12.5341C287.607 12.247 288.6 12.772 288.886 13.7074C289.172 14.6423 288.643 15.6331 287.704 15.9202ZM284.988 17.6211C285.702 17.4026 286.458 17.8026 286.676 18.5143C286.894 19.226 286.491 19.9805 285.776 20.1989C285.195 20.3769 284.586 20.1449 284.262 19.6685L285.122 19.6936C285.655 19.7979 286.173 19.4519 286.279 18.9194C286.385 18.3877 286.039 17.8718 285.505 17.7671L284.707 17.7439C284.795 17.694 284.888 17.6518 284.988 17.6211Z" fill="white"/>
<path d="M86.8095 168.95C92.7333 168.95 95.6063 166.01 95.6063 162.57C95.6063 155.014 83.5514 157.631 83.5514 153.838C83.5514 152.545 84.6473 151.486 87.4907 151.486C89.3271 151.486 91.3116 152.016 93.2368 153.103L94.7177 149.487C92.7925 148.282 90.1268 147.665 87.5204 147.665C81.6262 147.665 78.7828 150.575 78.7828 154.074C78.7828 161.717 90.8377 159.071 90.8377 162.923C90.8377 164.187 89.6825 165.128 86.8391 165.128C84.3512 165.128 81.7447 164.246 79.9972 162.981L78.3682 166.568C80.2045 167.979 83.5218 168.95 86.8095 168.95Z" fill="white"/>
<path d="M109.37 168.597H114.168V151.898H120.802V148.017H102.735V151.898H109.37V168.597Z" fill="white"/>
<path d="M134.632 164.775V160.012H144.258V156.308H134.632V151.839H145.531V148.017H129.863V168.597H145.917V164.775H134.632Z" fill="white"/>
<path d="M171.704 168.597H176.739L167.469 148.017H162.73L153.488 168.597H158.405L160.242 164.187H169.868L171.704 168.597ZM161.782 160.571L165.069 152.692L168.357 160.571H161.782Z" fill="white"/>
<path d="M208.739 168.597L208.679 148.017H204.74L197.098 160.806L189.338 148.017H185.369V168.597H189.871V156.514L195.943 166.421H198.105L204.207 156.249L204.237 168.597H208.739Z" fill="white"/>
<path fill-rule="evenodd" clip-rule="evenodd" d="M230.954 153.124C230.954 155.553 228.985 157.521 226.557 157.521C224.129 157.521 222.16 155.553 222.16 153.124C222.16 150.696 224.129 148.728 226.557 148.728C228.985 148.728 230.954 150.696 230.954 153.124ZM226.557 156.59C228.471 156.59 230.022 155.038 230.022 153.124C230.022 151.21 228.471 149.659 226.557 149.659C224.643 149.659 223.091 151.21 223.091 153.124C223.091 155.038 224.643 156.59 226.557 156.59Z" fill="white"/>
<path d="M226.571 153.514H225.612V155.164H225.071V151.084H226.422C226.882 151.084 227.235 151.188 227.482 151.398C227.73 151.607 227.854 151.911 227.854 152.311C227.854 152.565 227.785 152.787 227.647 152.976C227.511 153.164 227.32 153.305 227.075 153.399L228.034 155.131V155.164H227.456L226.571 153.514ZM225.612 153.074H226.439C226.706 153.074 226.918 153.005 227.075 152.866C227.234 152.728 227.313 152.543 227.313 152.311C227.313 152.059 227.238 151.866 227.086 151.731C226.937 151.597 226.72 151.528 226.436 151.527H225.612V153.074Z" fill="white"/>
</svg>
